<svg xmlns="http://www.w3.org/2000/svg" xmlns:xlink="http://www.w3.org/1999/xlink" width="412.402" height="327.144" viewBox="0 0 412.402 327.144">
  <defs>
    <clipPath id="clip-path">
      <path id="Rect치ngulo_275445" data-name="Rect치ngulo 275445" d="M17.3,0H382.7A17.3,17.3,0,0,1,400,17.3V168.759a17.3,17.3,0,0,1-17.3,17.3H17.3A17.3,17.3,0,0,1,0,168.76V17.3A17.3,17.3,0,0,1,17.3,0Z" fill="#eb6f2d"/>
    </clipPath>
    <clipPath id="clip-path-2">
      <rect id="Rect치ngulo_275455" data-name="Rect치ngulo 275455" width="262.547" height="257.959" fill="none"/>
    </clipPath>
    <filter id="Trazado_609238" x="0" y="0" width="412.402" height="288.508" filterUnits="userSpaceOnUse">
      <feOffset dy="3" input="SourceAlpha"/>
      <feGaussianBlur stdDeviation="8" result="blur"/>
      <feFlood flood-opacity="0.161"/>
      <feComposite operator="in" in2="blur"/>
      <feComposite in="SourceGraphic"/>
    </filter>
    <filter id="Trazado_609239" x="25.622" y="271.489" width="68.045" height="55.654" filterUnits="userSpaceOnUse">
      <feOffset dy="3" input="SourceAlpha"/>
      <feGaussianBlur stdDeviation="3" result="blur-2"/>
      <feFlood flood-opacity="0.161"/>
      <feComposite operator="in" in2="blur-2"/>
      <feComposite in="SourceGraphic"/>
    </filter>
  </defs>
  <g id="Grupo_870574" data-name="Grupo 870574" transform="translate(-1014 -1265.158)">
    <g id="Grupo_753158" data-name="Grupo 753158" transform="translate(1020 1322.893)">
      <g id="Grupo_731713" data-name="Grupo 731713" clip-path="url(#clip-path)">
        <path id="Trazado_496670" data-name="Trazado 496670" d="M0,0H400V186.061H0Z" transform="translate(0 0)" fill="#eb6f2d"/>
      </g>
    </g>
    <path id="Trazado_609235" data-name="Trazado 609235" d="M0,0H262.547V257.959H0Z" transform="translate(1020 1322.893)" fill="none"/>
    <path id="Trazado_609236" data-name="Trazado 609236" d="M0,0H262.547V257.959H0Z" transform="translate(1023.115 1322.893)" fill="none"/>
    <path id="Trazado_609237" data-name="Trazado 609237" d="M12.362,6.585H8.522V17H5.437V6.585H1.666V4.2h10.7Zm6.258,9.387a3.054,3.054,0,0,1-2.54,1.2,3,3,0,0,1-2.369-.91,3.826,3.826,0,0,1-.8-2.615V7.49h2.962v6.179a1.065,1.065,0,0,0,1.187,1.222,1.548,1.548,0,0,0,1.45-.729V7.49h2.979V17H18.708Zm10.239-5.8-.976-.07a1.752,1.752,0,0,0-1.793.879V17H23.129V7.49h2.777L26,8.712a2.294,2.294,0,0,1,2.083-1.4,2.888,2.888,0,0,1,.826.105ZM33.052,17H30.081V7.49h2.971ZM29.905,5.038A1.322,1.322,0,0,1,30.362,4a1.943,1.943,0,0,1,2.373,0,1.322,1.322,0,0,1,.457,1.037,1.322,1.322,0,0,1-.457,1.037,1.943,1.943,0,0,1-2.373,0A1.322,1.322,0,0,1,29.905,5.038Zm9.949,9.29a.684.684,0,0,0-.4-.606,6.016,6.016,0,0,0-1.5-.475,6.853,6.853,0,0,1-1.828-.646,3.062,3.062,0,0,1-1.1-.971,2.319,2.319,0,0,1-.378-1.31,2.628,2.628,0,0,1,1.081-2.158,4.453,4.453,0,0,1,2.83-.848,4.934,4.934,0,0,1,3.023.853,2.666,2.666,0,0,1,1.143,2.241H39.758q0-1.143-1.2-1.143a1.194,1.194,0,0,0-.782.259.8.8,0,0,0-.316.646.737.737,0,0,0,.387.642,3.654,3.654,0,0,0,1.235.4,10.671,10.671,0,0,1,1.49.378,2.706,2.706,0,0,1,2.145,2.646,2.491,2.491,0,0,1-1.156,2.118,5.068,5.068,0,0,1-2.993.817,5.172,5.172,0,0,1-2.18-.439,3.645,3.645,0,0,1-1.494-1.2,2.707,2.707,0,0,1-.536-1.591h2.769a1.145,1.145,0,0,0,.439.962,1.808,1.808,0,0,0,1.081.3,1.422,1.422,0,0,0,.91-.246A.787.787,0,0,0,39.855,14.328Zm7.04-6.838.1,1.116a3.27,3.27,0,0,1,2.716-1.292,2.407,2.407,0,0,1,2.435,1.433,3.165,3.165,0,0,1,2.795-1.433q2.892,0,2.971,3.5V17H54.937V11a1.813,1.813,0,0,0-.246-1.063,1.048,1.048,0,0,0-.9-.334,1.4,1.4,0,0,0-1.31.782l.009.123V17H49.523V11.015a1.906,1.906,0,0,0-.237-1.081A1.045,1.045,0,0,0,48.38,9.6a1.42,1.42,0,0,0-1.3.782V17H44.117V7.49Zm12.331,4.667a5.613,5.613,0,0,1,.554-2.536A3.96,3.96,0,0,1,61.37,7.912a4.791,4.791,0,0,1,2.435-.6,4.373,4.373,0,0,1,3.366,1.323,5.076,5.076,0,0,1,1.23,3.6v.105a4.925,4.925,0,0,1-1.235,3.529,4.384,4.384,0,0,1-3.344,1.305,4.434,4.434,0,0,1-3.261-1.217,4.761,4.761,0,0,1-1.327-3.3Zm2.962.185a3.538,3.538,0,0,0,.413,1.934,1.376,1.376,0,0,0,1.222.615q1.582,0,1.617-2.435v-.3Q65.44,9.6,63.8,9.6q-1.485,0-1.608,2.206Zm11.628-.167a5.809,5.809,0,0,1,.976-3.56,3.211,3.211,0,0,1,2.725-1.3,2.731,2.731,0,0,1,2.145,1V3.5h2.971V17H79.968l-.149-1.02a2.8,2.8,0,0,1-2.32,1.2,3.205,3.205,0,0,1-2.689-1.3A5.993,5.993,0,0,1,73.816,12.175Zm2.962.185q0,2.531,1.477,2.531a1.458,1.458,0,0,0,1.406-.826V10.443A1.419,1.419,0,0,0,78.272,9.6q-1.371,0-1.485,2.215Zm12.138,4.816a4.889,4.889,0,0,1-3.542-1.305,4.507,4.507,0,0,1-1.354-3.4v-.246a5.84,5.84,0,0,1,.541-2.575,3.955,3.955,0,0,1,1.578-1.727A4.763,4.763,0,0,1,88.6,7.314a4.117,4.117,0,0,1,3.164,1.244,4.887,4.887,0,0,1,1.16,3.467v1.151H87.034a2.135,2.135,0,0,0,.694,1.257,2.066,2.066,0,0,0,1.389.457,2.662,2.662,0,0,0,2.2-.984l1.354,1.6A3.784,3.784,0,0,1,91.1,16.723,5.3,5.3,0,0,1,88.915,17.176ZM88.581,9.6q-1.3,0-1.547,1.723h2.988v-.229a1.467,1.467,0,0,0-.36-1.1A1.434,1.434,0,0,0,88.581,9.6ZM99.251,17V9.547h-1.38V7.49h1.38V6.734a3.286,3.286,0,0,1,.958-2.522,3.785,3.785,0,0,1,2.689-.9,5.89,5.89,0,0,1,1.389.185l.009,2.18a2.706,2.706,0,0,0-.729-.079q-1.345,0-1.345,1.16V7.49h1.854V9.547h-1.854V17Zm5.493-4.843a5.613,5.613,0,0,1,.554-2.536,3.96,3.96,0,0,1,1.591-1.709,4.791,4.791,0,0,1,2.435-.6,4.373,4.373,0,0,1,3.366,1.323,5.076,5.076,0,0,1,1.23,3.6v.105a4.925,4.925,0,0,1-1.235,3.529,4.384,4.384,0,0,1-3.344,1.305,4.434,4.434,0,0,1-3.261-1.217,4.761,4.761,0,0,1-1.327-3.3Zm2.962.185a3.538,3.538,0,0,0,.413,1.934,1.376,1.376,0,0,0,1.222.615q1.582,0,1.617-2.435v-.3q0-2.558-1.635-2.558-1.485,0-1.608,2.206Zm13.271-2.171L120,10.1a1.752,1.752,0,0,0-1.793.879V17h-2.962V7.49h2.777l.1,1.222a2.294,2.294,0,0,1,2.083-1.4,2.888,2.888,0,0,1,.826.105Zm3.867-2.681.1,1.116a3.27,3.27,0,0,1,2.716-1.292,2.407,2.407,0,0,1,2.435,1.433,3.165,3.165,0,0,1,2.795-1.433q2.892,0,2.971,3.5V17h-2.971V11a1.813,1.813,0,0,0-.246-1.063,1.048,1.048,0,0,0-.9-.334,1.4,1.4,0,0,0-1.31.782l.009.123V17h-2.971V11.015a1.906,1.906,0,0,0-.237-1.081,1.045,1.045,0,0,0-.905-.334,1.42,1.42,0,0,0-1.3.782V17h-2.962V7.49ZM142.906,17a3.344,3.344,0,0,1-.281-.853,2.754,2.754,0,0,1-2.285,1.028,3.374,3.374,0,0,1-2.285-.813,2.588,2.588,0,0,1-.94-2.043,2.66,2.66,0,0,1,1.143-2.338,5.821,5.821,0,0,1,3.322-.791h.914v-.5q0-1.316-1.134-1.316a.927.927,0,0,0-1.055,1.042h-2.962a2.655,2.655,0,0,1,1.173-2.239,4.931,4.931,0,0,1,2.993-.86,4.323,4.323,0,0,1,2.874.888,3.086,3.086,0,0,1,1.081,2.435v4.21a4.311,4.311,0,0,0,.4,2V17Zm-1.854-1.934a1.652,1.652,0,0,0,.918-.237,1.487,1.487,0,0,0,.523-.536V12.772h-.861q-1.547,0-1.547,1.389a.848.848,0,0,0,.272.655A.986.986,0,0,0,141.052,15.066Zm10.072-.176a1.317,1.317,0,0,0,.967-.338,1.241,1.241,0,0,0,.334-.945H155.2a3.288,3.288,0,0,1-1.121,2.566,4.168,4.168,0,0,1-2.887,1,4.22,4.22,0,0,1-3.27-1.3,5.125,5.125,0,0,1-1.2-3.6v-.123a5.792,5.792,0,0,1,.532-2.544,3.872,3.872,0,0,1,1.534-1.7,4.573,4.573,0,0,1,2.373-.593,4.116,4.116,0,0,1,2.944,1.028,3.647,3.647,0,0,1,1.09,2.786h-2.777a1.626,1.626,0,0,0-.36-1.134,1.244,1.244,0,0,0-.967-.4q-1.151,0-1.345,1.468a10.357,10.357,0,0,0-.062,1.283,4.068,4.068,0,0,0,.343,1.986A1.187,1.187,0,0,0,151.124,14.891ZM159.579,17h-2.971V7.49h2.971ZM156.433,5.038A1.322,1.322,0,0,1,156.89,4a1.943,1.943,0,0,1,2.373,0,1.322,1.322,0,0,1,.457,1.037,1.322,1.322,0,0,1-.457,1.037,1.943,1.943,0,0,1-2.373,0A1.322,1.322,0,0,1,156.433,5.038Zm4.6,7.119a5.613,5.613,0,0,1,.554-2.536,3.96,3.96,0,0,1,1.591-1.709,4.791,4.791,0,0,1,2.435-.6,4.373,4.373,0,0,1,3.366,1.323,5.076,5.076,0,0,1,1.23,3.6v.105a4.925,4.925,0,0,1-1.235,3.529,4.384,4.384,0,0,1-3.344,1.305,4.434,4.434,0,0,1-3.261-1.217,4.761,4.761,0,0,1-1.327-3.3Zm2.962.185a3.538,3.538,0,0,0,.413,1.934,1.376,1.376,0,0,0,1.222.615q1.582,0,1.617-2.435v-.3q0-2.558-1.635-2.558-1.485,0-1.608,2.206ZM166.013,3.5h3.129L166.7,6.26l-2.417,0Zm8.218,3.99.1,1.116a3.225,3.225,0,0,1,2.716-1.292,2.713,2.713,0,0,1,2.219.888,4.226,4.226,0,0,1,.76,2.672V17h-2.971V11a1.6,1.6,0,0,0-.29-1.059,1.342,1.342,0,0,0-1.055-.338,1.413,1.413,0,0,0-1.292.686V17h-2.962V7.49Z" transform="translate(1129.415 1545.699)" fill="#12263f"/>
    <g transform="matrix(1, 0, 0, 1, 1014, 1265.16)" filter="url(#Trazado_609238)">
      <path id="Trazado_609238-2" data-name="Trazado 609238" d="M178.939,238.568,154.492,206.98a5.13,5.13,0,0,1-.652-1.1H18a18,18,0,0,1-18-18V18A18,18,0,0,1,18,0H346.4a18,18,0,0,1,18,18V187.883a18,18,0,0,1-18,18H211.946a5.131,5.131,0,0,1-.652,1.1l-24.447,31.588a5,5,0,0,1-7.908,0Z" transform="translate(24 21)" fill="#fff"/>
    </g>
    <g transform="matrix(1, 0, 0, 1, 1014, 1265.16)" filter="url(#Trazado_609239)">
      <path id="Trazado_609239-2" data-name="Trazado 609239" d="M25.9-18.357a35.768,35.768,0,0,1-.825,8.1A18.872,18.872,0,0,1,22.687-4.3,10.742,10.742,0,0,1,18.853-.622,10.5,10.5,0,0,1,13.686.635,9.8,9.8,0,0,1,8.8-.571,10.244,10.244,0,0,1,5.18-4.088,17.824,17.824,0,0,1,2.945-9.763a35.089,35.089,0,0,1-.762-7.706,39.72,39.72,0,0,1,.8-8.43A19.281,19.281,0,0,1,5.332-32.03a10.454,10.454,0,0,1,3.847-3.732,10.8,10.8,0,0,1,5.269-1.257Q25.9-37.02,25.9-18.357Zm-4.266.406q0-15.539-7.389-15.539-7.795,0-7.795,15.818,0,14.752,7.643,14.752Q21.633-2.92,21.633-17.951Zm30.6,7.643A10.614,10.614,0,0,1,51.3-5.827a9.9,9.9,0,0,1-2.615,3.453,12.071,12.071,0,0,1-4.05,2.222,16.381,16.381,0,0,1-5.205.787,15.125,15.125,0,0,1-8.277-1.98V-5.814a13.265,13.265,0,0,0,8.43,2.895,11.456,11.456,0,0,0,3.44-.482,7.714,7.714,0,0,0,2.641-1.4,6.2,6.2,0,0,0,1.7-2.209,6.9,6.9,0,0,0,.6-2.92q0-7.135-10.156-7.135H34.785v-3.529h2.869q8.988,0,8.988-6.7,0-6.2-6.855-6.2a11.673,11.673,0,0,0-7.236,2.59v-4.037a15.82,15.82,0,0,1,8.277-2.082,12.719,12.719,0,0,1,4.139.635,9.483,9.483,0,0,1,3.174,1.777,7.876,7.876,0,0,1,2.044,2.742,8.464,8.464,0,0,1,.724,3.529q0,7.186-7.262,9.242v.1a11.487,11.487,0,0,1,3.428.9,9.147,9.147,0,0,1,2.717,1.815,8.093,8.093,0,0,1,1.79,2.628A8.39,8.39,0,0,1,52.229-10.309Z" transform="translate(32.44 314.51)" fill="#12263f"/>
    </g>
  </g>
</svg>
