<svg xmlns="http://www.w3.org/2000/svg" xmlns:xlink="http://www.w3.org/1999/xlink" width="820" height="172.727" viewBox="0 0 820 172.727">
  <defs>
    <clipPath id="clip-path">
      <rect id="Rectángulo_277789" data-name="Rectángulo 277789" width="820" height="172.727" fill="none"/>
    </clipPath>
    <filter id="Trazado_501706" x="-7.758" y="-4.76" width="187.42" height="187.421" filterUnits="userSpaceOnUse">
      <feOffset dy="3" input="SourceAlpha"/>
      <feGaussianBlur stdDeviation="9" result="blur"/>
      <feFlood flood-opacity="0.161"/>
      <feComposite operator="in" in2="blur"/>
      <feComposite in="SourceGraphic"/>
    </filter>
    <filter id="Trazado_501703" x="206.704" y="-5.615" width="187.421" height="187.421" filterUnits="userSpaceOnUse">
      <feOffset dy="3" input="SourceAlpha"/>
      <feGaussianBlur stdDeviation="9" result="blur-2"/>
      <feFlood flood-opacity="0.161"/>
      <feComposite operator="in" in2="blur-2"/>
      <feComposite in="SourceGraphic"/>
    </filter>
    <filter id="Rectángulo_277788" x="424.346" y="-4.76" width="187.422" height="187.421" filterUnits="userSpaceOnUse">
      <feOffset dy="3" input="SourceAlpha"/>
      <feGaussianBlur stdDeviation="9" result="blur-3"/>
      <feFlood flood-opacity="0.161"/>
      <feComposite operator="in" in2="blur-3"/>
      <feComposite in="SourceGraphic"/>
    </filter>
    <filter id="Trazado_501704" x="640.337" y="-5.615" width="187.422" height="187.421" filterUnits="userSpaceOnUse">
      <feOffset dy="3" input="SourceAlpha"/>
      <feGaussianBlur stdDeviation="9" result="blur-4"/>
      <feFlood flood-opacity="0.161"/>
      <feComposite operator="in" in2="blur-4"/>
      <feComposite in="SourceGraphic"/>
    </filter>
  </defs>
  <g id="Grupo_870576" data-name="Grupo 870576" transform="translate(9193.896 -7166.7)">
    <g id="Grupo_736621" data-name="Grupo 736621" transform="translate(-9193.896 7166.7)" clip-path="url(#clip-path)">
      <path id="Trazado_501648" data-name="Trazado 501648" d="M429.081,34.9a2.584,2.584,0,1,0,2.584,2.584,2.58,2.58,0,0,0-2.584-2.584" transform="translate(225.906 18.484)" fill="#333"/>
      <path id="Trazado_501649" data-name="Trazado 501649" d="M429.081,28.184a2.584,2.584,0,1,0,2.584,2.584,2.58,2.58,0,0,0-2.584-2.584" transform="translate(225.906 14.928)" fill="#333"/>
      <path id="Trazado_501650" data-name="Trazado 501650" d="M429.081,41.609a2.584,2.584,0,1,0,2.584,2.584,2.58,2.58,0,0,0-2.584-2.584" transform="translate(225.906 22.039)" fill="#333"/>
      <path id="Trazado_501651" data-name="Trazado 501651" d="M429.081,48.322a2.584,2.584,0,1,0,2.584,2.584,2.58,2.58,0,0,0-2.584-2.584" transform="translate(225.906 25.595)" fill="#333"/>
      <path id="Trazado_501652" data-name="Trazado 501652" d="M429.081,21.46a2.584,2.584,0,1,0,2.584,2.584,2.58,2.58,0,0,0-2.584-2.584" transform="translate(225.906 11.367)" fill="#333"/>
      <path id="Trazado_501653" data-name="Trazado 501653" d="M433.657,9.251a2.7,2.7,0,0,0-1.6-.552,2.543,2.543,0,0,0-2.031,1,2.583,2.583,0,1,0,3.635-.448" transform="translate(227.48 4.608)" fill="#333"/>
      <path id="Trazado_501654" data-name="Trazado 501654" d="M429.786,14.81a2.2,2.2,0,0,0-.465-.05,2.619,2.619,0,1,0,.465.05" transform="translate(226.028 7.818)" fill="#333"/>
      <path id="Trazado_501655" data-name="Trazado 501655" d="M532.45,41.575a2.593,2.593,0,1,0,2.584,2.6,2.595,2.595,0,0,0-2.584-2.6" transform="translate(280.658 22.021)" fill="#333"/>
      <path id="Trazado_501656" data-name="Trazado 501656" d="M531.067,13.294a2.575,2.575,0,0,0,.43-3.618V9.659a2.629,2.629,0,0,0-2.031-.982,2.532,2.532,0,0,0-1.6.569,2.581,2.581,0,1,0,3.2,4.048" transform="translate(279.076 4.596)" fill="#333"/>
      <path id="Trazado_501657" data-name="Trazado 501657" d="M532.45,34.863a2.584,2.584,0,1,0,2.584,2.584,2.58,2.58,0,0,0-2.584-2.584" transform="translate(280.658 18.466)" fill="#333"/>
      <path id="Trazado_501658" data-name="Trazado 501658" d="M532.45,48.3a2.584,2.584,0,1,0,2.584,2.585A2.581,2.581,0,0,0,532.45,48.3" transform="translate(280.658 25.583)" fill="#333"/>
      <path id="Trazado_501659" data-name="Trazado 501659" d="M532.45,28.15a2.584,2.584,0,1,0,2.584,2.584,2.58,2.58,0,0,0-2.584-2.584" transform="translate(280.658 14.91)" fill="#333"/>
      <path id="Trazado_501660" data-name="Trazado 501660" d="M437.281,4.589a2.589,2.589,0,1,0,1.068,4.944,2.588,2.588,0,0,0-1.068-4.944" transform="translate(230.247 2.431)" fill="#333"/>
      <path id="Trazado_501661" data-name="Trazado 501661" d="M529.666,17.8a2.586,2.586,0,1,0,2.55-3.067,2.389,2.389,0,0,0-.483.052,2.586,2.586,0,0,0-2.067,3.015" transform="translate(280.529 7.805)" fill="#333"/>
      <path id="Trazado_501662" data-name="Trazado 501662" d="M532.45,21.438a2.584,2.584,0,1,0,2.584,2.584,2.58,2.58,0,0,0-2.584-2.584" transform="translate(280.658 11.355)" fill="#333"/>
      <path id="Trazado_501663" data-name="Trazado 501663" d="M504.26,3.349a2.594,2.594,0,1,0,2.582,2.584,2.592,2.592,0,0,0-2.582-2.584" transform="translate(265.726 1.774)" fill="#333"/>
      <path id="Trazado_501664" data-name="Trazado 501664" d="M497.535,3.349a2.594,2.594,0,1,0,2.584,2.584,2.6,2.6,0,0,0-2.584-2.584" transform="translate(262.164 1.774)" fill="#333"/>
      <path id="Trazado_501665" data-name="Trazado 501665" d="M510.972,3.349a2.594,2.594,0,1,0,2.584,2.584,2.592,2.592,0,0,0-2.584-2.584" transform="translate(269.281 1.774)" fill="#333"/>
      <path id="Trazado_501666" data-name="Trazado 501666" d="M525.28,4.818h.017a2.582,2.582,0,1,0-2.135,4.7,2.579,2.579,0,1,0,2.119-4.7" transform="translate(276.301 2.425)" fill="#333"/>
      <path id="Trazado_501667" data-name="Trazado 501667" d="M443.813,3.349A2.594,2.594,0,1,0,446.4,5.933a2.605,2.605,0,0,0-2.584-2.584" transform="translate(233.708 1.774)" fill="#333"/>
      <path id="Trazado_501668" data-name="Trazado 501668" d="M517.684,3.349a2.594,2.594,0,1,0,2.584,2.584,2.592,2.592,0,0,0-2.584-2.584" transform="translate(272.836 1.774)" fill="#333"/>
      <path id="Trazado_501669" data-name="Trazado 501669" d="M490.823,3.349a2.594,2.594,0,1,0,2.584,2.584,2.592,2.592,0,0,0-2.584-2.584" transform="translate(258.609 1.774)" fill="#333"/>
      <path id="Trazado_501670" data-name="Trazado 501670" d="M457.249,3.349a2.594,2.594,0,1,0,2.584,2.584,2.592,2.592,0,0,0-2.584-2.584" transform="translate(240.826 1.774)" fill="#333"/>
      <path id="Trazado_501671" data-name="Trazado 501671" d="M484.111,3.349a2.594,2.594,0,1,0,2.584,2.584,2.592,2.592,0,0,0-2.584-2.584" transform="translate(255.053 1.774)" fill="#333"/>
      <path id="Trazado_501672" data-name="Trazado 501672" d="M463.961,3.349a2.594,2.594,0,1,0,2.584,2.584,2.592,2.592,0,0,0-2.584-2.584" transform="translate(244.381 1.774)" fill="#333"/>
      <path id="Trazado_501673" data-name="Trazado 501673" d="M450.537,3.349a2.594,2.594,0,1,0,2.584,2.584,2.592,2.592,0,0,0-2.584-2.584" transform="translate(237.27 1.774)" fill="#333"/>
      <path id="Trazado_501674" data-name="Trazado 501674" d="M477.4,3.349a2.594,2.594,0,1,0,2.584,2.584A2.592,2.592,0,0,0,477.4,3.349" transform="translate(251.498 1.774)" fill="#333"/>
      <path id="Trazado_501675" data-name="Trazado 501675" d="M470.685,3.349a2.594,2.594,0,1,0,2.567,2.584,2.581,2.581,0,0,0-2.567-2.584" transform="translate(247.942 1.774)" fill="#333"/>
      <path id="Trazado_501676" data-name="Trazado 501676" d="M532.45,55.034a2.3,2.3,0,0,0-.5.052,2.924,2.924,0,0,0-1.326.705,2.616,2.616,0,0,0-.757,1.826,2.38,2.38,0,0,0,.206,1,2.121,2.121,0,0,0,.223.448,3.445,3.445,0,0,0,.327.4,2.629,2.629,0,0,0,2.327.69,2.757,2.757,0,0,0,.5-.138,3.443,3.443,0,0,0,.431-.242,2.4,2.4,0,0,0,.4-.311,3.431,3.431,0,0,0,.327-.4,3.676,3.676,0,0,0,.242-.448c.051-.154.1-.327.138-.482a2.694,2.694,0,0,0,.05-.517,2.616,2.616,0,0,0-.757-1.826,2.587,2.587,0,0,0-1.826-.757" transform="translate(280.658 29.15)" fill="#333"/>
      <path id="Trazado_501677" data-name="Trazado 501677" d="M6.891,92.842A6.891,6.891,0,0,1,0,85.951V28.245A28.278,28.278,0,0,1,28.247,0h115.41A28.278,28.278,0,0,1,171.9,28.245V59.6a6.891,6.891,0,1,1-13.782,0V28.245a14.481,14.481,0,0,0-14.465-14.463H28.247A14.48,14.48,0,0,0,13.782,28.245V85.951a6.891,6.891,0,0,1-6.891,6.891" transform="translate(0 0)" fill="#efd800"/>
      <path id="Trazado_501678" data-name="Trazado 501678" d="M4.8,84.725a.861.861,0,0,1-.861-.861V26.158A22.241,22.241,0,0,1,26.159,3.941h115.41a22.242,22.242,0,0,1,22.217,22.217V57.509a.861.861,0,1,1-1.722,0V26.158A20.518,20.518,0,0,0,141.569,5.665H26.159A20.517,20.517,0,0,0,5.664,26.158V83.864a.861.861,0,0,1-.861.861" transform="translate(2.088 2.087)" fill="#333"/>
      <path id="Trazado_501679" data-name="Trazado 501679" d="M5.4,59.661a2.595,2.595,0,0,1-1.826-4.427,2.7,2.7,0,0,1,3.651,0,3.587,3.587,0,0,1,.329.4,3.672,3.672,0,0,1,.24.448,4.746,4.746,0,0,1,.138.482,2.578,2.578,0,0,1,.052.517A2.611,2.611,0,0,1,7.224,58.9a2.581,2.581,0,0,1-1.825.757" transform="translate(1.491 28.88)" fill="#333"/>
      <path id="Trazado_501680" data-name="Trazado 501680" d="M138.349,132.593a2.584,2.584,0,1,1,2.584,2.584,2.6,2.6,0,0,1-2.584-2.584m-10.267,0a2.584,2.584,0,1,1,2.584,2.584,2.6,2.6,0,0,1-2.584-2.584m-10.269,0a2.584,2.584,0,1,1,2.584,2.584,2.6,2.6,0,0,1-2.584-2.584m-10.286,0a2.584,2.584,0,1,1,2.584,2.584,2.608,2.608,0,0,1-2.584-2.584m-10.267,0a2.584,2.584,0,1,1,2.584,2.584,2.6,2.6,0,0,1-2.584-2.584m-10.269,0a2.584,2.584,0,1,1,2.584,2.584,2.6,2.6,0,0,1-2.584-2.584m-10.267,0a2.584,2.584,0,1,1,2.584,2.584,2.6,2.6,0,0,1-2.584-2.584m-10.269,0a2.575,2.575,0,1,1,2.585,2.584,2.586,2.586,0,0,1-2.585-2.584m-10.286,0a2.584,2.584,0,1,1,2.584,2.584,2.6,2.6,0,0,1-2.584-2.584m-10.267,0a2.584,2.584,0,1,1,2.584,2.584,2.6,2.6,0,0,1-2.584-2.584m-10.269,0a2.584,2.584,0,1,1,2.585,2.584,2.6,2.6,0,0,1-2.585-2.584m-10.286,0a2.584,2.584,0,1,1,2.585,2.584,2.609,2.609,0,0,1-2.585-2.584m123.234-.828a2.579,2.579,0,1,1,4.7-2.119,2.556,2.556,0,0,1-1.293,3.41h.017a2.557,2.557,0,0,1-3.428-1.291M16.873,133.04a2.559,2.559,0,1,1,1.068.242,2.6,2.6,0,0,1-1.068-.242m140.478-6.581a2.581,2.581,0,1,1,3.636-.431v.017a2.627,2.627,0,0,1-2.033.982,2.542,2.542,0,0,1-1.6-.568M7.915,125.994a2.583,2.583,0,1,1,3.635.448,2.7,2.7,0,0,1-1.6.552,2.543,2.543,0,0,1-2.031-1m154.759-8.288a2.576,2.576,0,1,1,.948-5.063,2.579,2.579,0,0,1-.465,5.115,2.391,2.391,0,0,1-.483-.052m-159.463-2.1a2.585,2.585,0,1,1,3.015,2.067,2.2,2.2,0,0,1-.465.05,2.611,2.611,0,0,1-2.55-2.117m157.723-10.683a2.584,2.584,0,1,1,2.585,2.585,2.582,2.582,0,0,1-2.585-2.585m-158.12-.034A2.584,2.584,0,1,1,5.4,107.474a2.581,2.581,0,0,1-2.584-2.585m158.12-10.234a2.584,2.584,0,1,1,2.585,2.584,2.581,2.581,0,0,1-2.585-2.584M2.815,94.6A2.584,2.584,0,1,1,5.4,97.187,2.593,2.593,0,0,1,2.815,94.6m158.12-10.217a2.584,2.584,0,1,1,2.585,2.585,2.582,2.582,0,0,1-2.585-2.585M2.815,84.335A2.584,2.584,0,1,1,5.4,86.92a2.581,2.581,0,0,1-2.584-2.585M160.935,74.1a2.584,2.584,0,1,1,2.585,2.6,2.591,2.591,0,0,1-2.585-2.6M2.815,74.068A2.584,2.584,0,1,1,5.4,76.651a2.58,2.58,0,0,1-2.584-2.584m158.12-10.234a2.584,2.584,0,1,1,2.585,2.585,2.592,2.592,0,0,1-2.585-2.585M2.815,63.8A2.584,2.584,0,1,1,5.4,66.384,2.58,2.58,0,0,1,2.815,63.8" transform="translate(1.491 32.425)" fill="#333"/>
      <path id="Trazado_501681" data-name="Trazado 501681" d="M108.768,59.671a2.3,2.3,0,0,1-.5-.052,2.216,2.216,0,0,1-.482-.154,2.185,2.185,0,0,1-.448-.242,2.216,2.216,0,0,1-.4-.309,2.617,2.617,0,0,1-.757-1.826,2.381,2.381,0,0,1,.207-1,2.114,2.114,0,0,1,.223-.448,3.576,3.576,0,0,1,.327-.4,2.633,2.633,0,0,1,2.327-.69,2.756,2.756,0,0,1,.5.138,3.655,3.655,0,0,1,.431.242,2.4,2.4,0,0,1,.4.311,3.573,3.573,0,0,1,.327.4,3.679,3.679,0,0,1,.242.448c.05.154.1.327.138.482a2.693,2.693,0,0,1,.05.517,2.617,2.617,0,0,1-.757,1.826,2.587,2.587,0,0,1-1.826.757" transform="translate(56.243 28.87)" fill="#333"/>
      <path id="Trazado_501682" data-name="Trazado 501682" d="M114.2,57.088a2.584,2.584,0,1,1,2.584,2.584,2.58,2.58,0,0,1-2.584-2.584" transform="translate(60.49 28.869)" fill="#333"/>
      <path id="Trazado_501683" data-name="Trazado 501683" d="M124.8,59.661a2.524,2.524,0,0,1-.5-.052,2.229,2.229,0,0,1-.483-.154,2.31,2.31,0,0,1-1.153-.948,2.724,2.724,0,0,1-.4-.93,2.525,2.525,0,0,1-.052-.5,2.616,2.616,0,0,1,.759-1.843,2.7,2.7,0,0,1,3.651,0,2.6,2.6,0,0,1,0,3.67,2.581,2.581,0,0,1-1.826.757" transform="translate(64.738 28.88)" fill="#333"/>
      <path id="Trazado_501685" data-name="Trazado 501685" d="M147.092,51.125a6.891,6.891,0,0,0-6.891,6.891v57.706a28.279,28.279,0,0,0,28.247,28.247h115.41A28.279,28.279,0,0,0,312.1,115.722V84.369a6.891,6.891,0,1,0-13.782,0v31.352a14.481,14.481,0,0,1-14.465,14.463H168.448a14.48,14.48,0,0,1-14.465-14.463V58.016a6.891,6.891,0,0,0-6.891-6.891" transform="translate(74.261 27.08)" fill="#94bf10"/>
      <path id="Trazado_501686" data-name="Trazado 501686" d="M145,55.067a.861.861,0,0,0-.861.861v57.706a22.241,22.241,0,0,0,22.217,22.217H281.77a22.242,22.242,0,0,0,22.217-22.217V82.281a.861.861,0,1,0-1.722,0v31.352a20.518,20.518,0,0,1-20.495,20.493H166.36a20.517,20.517,0,0,1-20.495-20.493V55.928a.861.861,0,0,0-.861-.861" transform="translate(76.349 29.168)" fill="#333"/>
      <path id="Trazado_501687" data-name="Trazado 501687" d="M145.6,53.937a2.595,2.595,0,0,0-1.826,4.427,2.7,2.7,0,0,0,3.651,0,3.418,3.418,0,0,0,.329-.4,3.67,3.67,0,0,0,.24-.448,4.745,4.745,0,0,0,.138-.482,2.587,2.587,0,0,0-2.532-3.1" transform="translate(75.753 28.569)" fill="#333"/>
      <path id="Trazado_501688" data-name="Trazado 501688" d="M281.135,2.253h0a2.593,2.593,0,1,1-2.584,2.584,2.591,2.591,0,0,1,2.584-2.584m-10.267,0h0a2.593,2.593,0,1,1-2.585,2.584,2.592,2.592,0,0,1,2.585-2.584m-10.269,0h0a2.593,2.593,0,1,1-2.584,2.584A2.6,2.6,0,0,1,260.6,2.253m-10.286,0h0a2.593,2.593,0,1,1-2.584,2.584,2.591,2.591,0,0,1,2.584-2.584m-10.267,0h0a2.593,2.593,0,1,1-2.585,2.584,2.592,2.592,0,0,1,2.585-2.584m-10.269,0h0a2.593,2.593,0,1,1-2.584,2.584,2.591,2.591,0,0,1,2.584-2.584m-10.267,0h0a2.593,2.593,0,1,1-2.585,2.584,2.592,2.592,0,0,1,2.585-2.584m-10.269,0h0a2.593,2.593,0,1,1-2.584,2.584,2.589,2.589,0,0,1,2.584-2.584m-10.286,0h0a2.593,2.593,0,1,1-2.584,2.584,2.592,2.592,0,0,1,2.584-2.584m-10.267,0h0A2.593,2.593,0,1,1,186.1,4.837a2.592,2.592,0,0,1,2.585-2.584m-10.269,0h0a2.593,2.593,0,1,1-2.584,2.584,2.592,2.592,0,0,1,2.584-2.584m-10.286,0h0a2.593,2.593,0,1,1-2.584,2.584,2.592,2.592,0,0,1,2.584-2.584m123.01,1.878h0a2.614,2.614,0,0,1,1.068.24H292.2a2.58,2.58,0,0,1-2.12,4.7,2.588,2.588,0,0,1,1.069-4.944m-133,.017h0a2.611,2.611,0,1,1-1.068.24,2.59,2.59,0,0,1,1.068-.24M299.156,10.4h0a2.626,2.626,0,0,1,2.031.984V11.4a2.582,2.582,0,1,1-3.635-.431,2.541,2.541,0,0,1,1.6-.569m-149.007.034h0a2.7,2.7,0,0,1,1.6.552,2.589,2.589,0,1,1-3.636.448,2.548,2.548,0,0,1,2.033-1m153.211,9.236h0a2.625,2.625,0,1,1-.483.052,2.39,2.39,0,0,1,.483-.052m-157.4.035h0a2.2,2.2,0,0,1,.467.05,2.545,2.545,0,1,1-.467-.05M303.72,29.922h0a2.584,2.584,0,1,1-2.584,2.584,2.581,2.581,0,0,1,2.584-2.584m-158.12.034h0a2.584,2.584,0,1,1-2.584,2.584,2.581,2.581,0,0,1,2.584-2.584M303.72,40.189h0a2.584,2.584,0,1,1-2.584,2.585,2.582,2.582,0,0,1,2.584-2.585m-158.12.054h0a2.584,2.584,0,1,1-2.584,2.584,2.58,2.58,0,0,1,2.584-2.584M303.72,50.458h0a2.584,2.584,0,1,1-2.584,2.584,2.581,2.581,0,0,1,2.584-2.584M145.6,50.51h0a2.584,2.584,0,1,1-2.584,2.584A2.58,2.58,0,0,1,145.6,50.51M303.72,60.725h0a2.593,2.593,0,1,1-2.584,2.6,2.6,2.6,0,0,1,2.584-2.6m-158.12.054h0a2.584,2.584,0,1,1-2.584,2.584,2.58,2.58,0,0,1,2.584-2.584M303.72,71.01h0a2.584,2.584,0,1,1-2.584,2.585,2.581,2.581,0,0,1,2.584-2.585m-158.12.035h0a2.584,2.584,0,1,1-2.584,2.584,2.581,2.581,0,0,1,2.584-2.584" transform="translate(75.753 1.193)" fill="#333"/>
      <path id="Trazado_501689" data-name="Trazado 501689" d="M248.969,53.937a2.4,2.4,0,0,0-.5.05,2.9,2.9,0,0,0-1.326.707,2.617,2.617,0,0,0-.757,1.826,2.7,2.7,0,0,0,.05.517,2.677,2.677,0,0,0,.156.482,2.114,2.114,0,0,0,.223.448,3.753,3.753,0,0,0,.327.4,2.633,2.633,0,0,0,2.327.69,2.757,2.757,0,0,0,.5-.138,3.659,3.659,0,0,0,.431-.242,2.488,2.488,0,0,0,.4-.311,3.571,3.571,0,0,0,.327-.4,3.679,3.679,0,0,0,.242-.448c.05-.154.1-.327.138-.482a2.7,2.7,0,0,0,.05-.517,2.617,2.617,0,0,0-.757-1.826,2.587,2.587,0,0,0-1.826-.757" transform="translate(130.504 28.569)" fill="#333"/>
      <path id="Trazado_501690" data-name="Trazado 501690" d="M254.4,56.522a2.584,2.584,0,1,0,2.582-2.584,2.58,2.58,0,0,0-2.582,2.584" transform="translate(134.752 28.57)" fill="#333"/>
      <path id="Trazado_501691" data-name="Trazado 501691" d="M265.007,53.937a2.641,2.641,0,0,0-.5.05,2.805,2.805,0,0,0-.93.4,2.078,2.078,0,0,0-.707.708,2.3,2.3,0,0,0-.242.447,2.229,2.229,0,0,0-.155.483,2.578,2.578,0,0,0,.707,2.342,2.7,2.7,0,0,0,3.651,0,2.6,2.6,0,0,0,0-3.67,2.575,2.575,0,0,0-1.825-.757" transform="translate(138.999 28.569)" fill="#333"/>
      <path id="Trazado_501693" data-name="Trazado 501693" d="M289.373,92.842a6.891,6.891,0,0,1-6.891-6.891V28.245A28.278,28.278,0,0,1,310.729,0H426.138a28.278,28.278,0,0,1,28.247,28.245V59.6a6.891,6.891,0,1,1-13.782,0V28.245a14.481,14.481,0,0,0-14.465-14.463H310.729a14.48,14.48,0,0,0-14.465,14.463V85.951a6.891,6.891,0,0,1-6.891,6.891" transform="translate(149.624 0)" fill="#08afaf"/>
      <path id="Trazado_501694" data-name="Trazado 501694" d="M287.285,84.725a.861.861,0,0,1-.861-.861V26.158A22.241,22.241,0,0,1,308.641,3.941H424.05a22.242,22.242,0,0,1,22.217,22.217V57.509a.861.861,0,1,1-1.722,0V26.158A20.518,20.518,0,0,0,424.05,5.665H308.641a20.517,20.517,0,0,0-20.495,20.493V83.864a.861.861,0,0,1-.861.861" transform="translate(151.712 2.087)" fill="#333"/>
      <path id="Trazado_501695" data-name="Trazado 501695" d="M287.881,59.661a2.595,2.595,0,0,1-1.826-4.427,2.7,2.7,0,0,1,3.651,0,3.429,3.429,0,0,1,.329.4,3.673,3.673,0,0,1,.24.448,4.758,4.758,0,0,1,.138.482,2.575,2.575,0,0,1,.052.517,2.612,2.612,0,0,1-.759,1.826,2.581,2.581,0,0,1-1.825.757" transform="translate(151.115 28.88)" fill="#333"/>
      <path id="Trazado_501696" data-name="Trazado 501696" d="M420.831,132.593a2.584,2.584,0,1,1,2.584,2.584,2.6,2.6,0,0,1-2.584-2.584m-10.267,0a2.584,2.584,0,1,1,2.584,2.584,2.6,2.6,0,0,1-2.584-2.584m-10.269,0a2.584,2.584,0,1,1,2.584,2.584,2.6,2.6,0,0,1-2.584-2.584m-10.286,0a2.584,2.584,0,1,1,2.584,2.584,2.608,2.608,0,0,1-2.584-2.584m-10.267,0a2.584,2.584,0,1,1,2.584,2.584,2.6,2.6,0,0,1-2.584-2.584m-10.269,0a2.584,2.584,0,1,1,2.584,2.584,2.6,2.6,0,0,1-2.584-2.584m-10.269,0a2.584,2.584,0,1,1,2.585,2.584,2.6,2.6,0,0,1-2.585-2.584m-10.267,0a2.575,2.575,0,1,1,2.584,2.584,2.586,2.586,0,0,1-2.584-2.584m-10.286,0a2.584,2.584,0,1,1,2.584,2.584,2.6,2.6,0,0,1-2.584-2.584m-10.267,0a2.584,2.584,0,1,1,2.584,2.584,2.6,2.6,0,0,1-2.584-2.584m-10.269,0a2.584,2.584,0,1,1,2.584,2.584,2.6,2.6,0,0,1-2.584-2.584m-10.286,0a2.584,2.584,0,1,1,2.584,2.584,2.608,2.608,0,0,1-2.584-2.584m123.234-.828a2.579,2.579,0,0,1,4.7-2.119,2.556,2.556,0,0,1-1.293,3.41h.017a2.557,2.557,0,0,1-3.428-1.291m-131.71,1.274a2.557,2.557,0,1,1,1.068.242,2.6,2.6,0,0,1-1.068-.242m140.478-6.581a2.581,2.581,0,1,1,3.636-.431v.017a2.627,2.627,0,0,1-2.033.982,2.539,2.539,0,0,1-1.6-.568M290.4,125.994a2.583,2.583,0,1,1,3.634.448,2.7,2.7,0,0,1-1.6.552,2.543,2.543,0,0,1-2.031-1m154.759-8.288a2.576,2.576,0,1,1,.948-5.063,2.579,2.579,0,0,1-.465,5.115,2.391,2.391,0,0,1-.483-.052m-159.463-2.1a2.585,2.585,0,1,1,3.015,2.067,2.2,2.2,0,0,1-.465.05,2.611,2.611,0,0,1-2.55-2.117m157.723-10.683A2.584,2.584,0,1,1,446,107.508a2.582,2.582,0,0,1-2.585-2.585m-158.12-.034a2.584,2.584,0,1,1,2.584,2.585,2.581,2.581,0,0,1-2.584-2.585m158.12-10.234A2.584,2.584,0,1,1,446,97.239a2.581,2.581,0,0,1-2.585-2.584M285.3,94.6a2.584,2.584,0,1,1,2.584,2.584A2.593,2.593,0,0,1,285.3,94.6m158.12-10.217A2.584,2.584,0,1,1,446,86.972a2.582,2.582,0,0,1-2.585-2.585M285.3,84.335a2.584,2.584,0,1,1,2.584,2.585,2.581,2.581,0,0,1-2.584-2.585M443.417,74.1A2.584,2.584,0,1,1,446,76.7a2.591,2.591,0,0,1-2.585-2.6M285.3,74.068a2.584,2.584,0,1,1,2.584,2.584,2.58,2.58,0,0,1-2.584-2.584m158.12-10.234A2.584,2.584,0,1,1,446,66.419a2.592,2.592,0,0,1-2.585-2.585M285.3,63.8a2.584,2.584,0,1,1,2.584,2.584A2.58,2.58,0,0,1,285.3,63.8" transform="translate(151.115 32.425)" fill="#333"/>
      <path id="Trazado_501697" data-name="Trazado 501697" d="M391.249,59.671a2.291,2.291,0,0,1-.5-.052,2.215,2.215,0,0,1-.482-.154,2.182,2.182,0,0,1-.448-.242,2.218,2.218,0,0,1-.4-.309,2.617,2.617,0,0,1-.757-1.826,2.379,2.379,0,0,1,.206-1,2.114,2.114,0,0,1,.223-.448,3.573,3.573,0,0,1,.327-.4,2.633,2.633,0,0,1,2.327-.69,2.756,2.756,0,0,1,.5.138,3.78,3.78,0,0,1,.431.242,2.406,2.406,0,0,1,.4.311,3.58,3.58,0,0,1,.327.4,3.689,3.689,0,0,1,.242.448c.05.154.1.327.138.482a2.691,2.691,0,0,1,.05.517,2.616,2.616,0,0,1-.757,1.826,2.587,2.587,0,0,1-1.826.757" transform="translate(205.867 28.87)" fill="#333"/>
      <path id="Trazado_501698" data-name="Trazado 501698" d="M396.684,57.088a2.584,2.584,0,1,1,2.584,2.584,2.58,2.58,0,0,1-2.584-2.584" transform="translate(210.114 28.869)" fill="#333"/>
      <path id="Trazado_501699" data-name="Trazado 501699" d="M407.287,59.661a2.524,2.524,0,0,1-.5-.052,2.2,2.2,0,0,1-.483-.154,2.31,2.31,0,0,1-1.153-.948,2.726,2.726,0,0,1-.4-.93,2.524,2.524,0,0,1-.052-.5,2.616,2.616,0,0,1,.759-1.843,2.7,2.7,0,0,1,3.651,0,2.6,2.6,0,0,1,0,3.67,2.582,2.582,0,0,1-1.826.757" transform="translate(214.362 28.88)" fill="#333"/>
      <path id="Trazado_501701" data-name="Trazado 501701" d="M430.573,52.223a6.891,6.891,0,0,0-6.891,6.891V116.82a28.279,28.279,0,0,0,28.247,28.247h115.41a28.279,28.279,0,0,0,28.247-28.247V85.467a6.891,6.891,0,1,0-13.782,0V116.82a14.481,14.481,0,0,1-14.465,14.463H451.929a14.48,14.48,0,0,1-14.465-14.463V59.114a6.891,6.891,0,0,0-6.891-6.891" transform="translate(224.415 27.661)" fill="#04425b"/>
      <path id="Trazado_501702" data-name="Trazado 501702" d="M428.485,56.165a.861.861,0,0,0-.861.861v57.706a22.241,22.241,0,0,0,22.217,22.217H565.25a22.242,22.242,0,0,0,22.217-22.217V83.379a.861.861,0,0,0-1.722,0v31.352a20.518,20.518,0,0,1-20.495,20.493H449.841a20.517,20.517,0,0,1-20.495-20.493V57.026a.861.861,0,0,0-.861-.861" transform="translate(226.503 29.749)" fill="#fff"/>
      <g transform="matrix(1, 0, 0, 1, 0, 0)" filter="url(#Trazado_501706)">
        <path id="Trazado_501706-2" data-name="Trazado 501706" d="M7.887,0H125.533a7.887,7.887,0,0,1,7.887,7.887V125.534a7.887,7.887,0,0,1-7.887,7.887H7.888A7.888,7.888,0,0,1,0,125.533V7.887A7.887,7.887,0,0,1,7.887,0Z" transform="translate(19.24 19.24)" fill="#fff"/>
      </g>
      <g transform="matrix(1, 0, 0, 1, 0, 0)" filter="url(#Trazado_501703)">
        <path id="Trazado_501703-2" data-name="Trazado 501703" d="M152.78,24.085V133.374a12.065,12.065,0,0,0,12.066,12.066H274.135A12.066,12.066,0,0,0,286.2,133.374V24.085a12.067,12.067,0,0,0-12.066-12.066H164.846A12.066,12.066,0,0,0,152.78,24.085" transform="translate(80.92 6.37)" fill="#fff"/>
      </g>
      <g transform="matrix(1, 0, 0, 1, 0, 0)" filter="url(#Rectángulo_277788)">
        <rect id="Rectángulo_277788-2" data-name="Rectángulo 277788" width="133.421" height="133.421" rx="7.888" transform="translate(451.35 19.24)" fill="#fff"/>
      </g>
      <g transform="matrix(1, 0, 0, 1, 0, 0)" filter="url(#Trazado_501704)">
        <path id="Trazado_501704-2" data-name="Trazado 501704" d="M436.26,24.085V133.374a12.065,12.065,0,0,0,12.066,12.066H557.615a12.066,12.066,0,0,0,12.066-12.066V24.085a12.067,12.067,0,0,0-12.066-12.066H448.326A12.066,12.066,0,0,0,436.26,24.085" transform="translate(231.08 6.37)" fill="#fff"/>
      </g>
      <path id="Trazado_501705" data-name="Trazado 501705" d="M429.081,53.937a2.595,2.595,0,0,0-1.826,4.427,2.7,2.7,0,0,0,3.651,0,3.422,3.422,0,0,0,.329-.4,3.681,3.681,0,0,0,.24-.448,4.741,4.741,0,0,0,.138-.482,2.587,2.587,0,0,0-2.532-3.1" transform="translate(225.906 28.569)" fill="#fff"/>
      <g id="Grupo_786784" data-name="Grupo 786784">
        <path id="Trazado_501684" data-name="Trazado 501684" d="M127.541,70.938a.878.878,0,0,1-.381-.087.867.867,0,0,1-.48-.774V49.888a.861.861,0,0,1,1.387-.682L141.149,59.3a.862.862,0,0,1,0,1.364L128.067,70.757a.86.86,0,0,1-.526.181m.861-19.3V68.324l10.81-8.341Z" transform="translate(67.1 25.969)" fill="#ecd500"/>
        <path id="Polígono_62" data-name="Polígono 62" d="M9,0l9,12H0Z" transform="translate(207 76.711) rotate(90)" fill="#ecd500"/>
      </g>
      <g id="Grupo_786785" data-name="Grupo 786785" transform="translate(214.462 -0.854)">
        <path id="Trazado_501684-2" data-name="Trazado 501684" d="M127.541,70.938a.878.878,0,0,1-.381-.087.867.867,0,0,1-.48-.774V49.888a.861.861,0,0,1,1.387-.682L141.149,59.3a.862.862,0,0,1,0,1.364L128.067,70.757a.86.86,0,0,1-.526.181m.861-19.3V68.324l10.81-8.341Z" transform="translate(67.1 25.969)" fill="#92bc0f"/>
        <path id="Polígono_62-2" data-name="Polígono 62" d="M9,0l9,12H0Z" transform="translate(207 76.711) rotate(90)" fill="#92bc0f"/>
      </g>
      <g id="Grupo_786786" data-name="Grupo 786786" transform="translate(435.462 0.861)">
        <path id="Trazado_501684-3" data-name="Trazado 501684" d="M127.541,70.938a.878.878,0,0,1-.381-.087.867.867,0,0,1-.48-.774V49.888a.861.861,0,0,1,1.387-.682L141.149,59.3a.862.862,0,0,1,0,1.364L128.067,70.757a.86.86,0,0,1-.526.181m.861-19.3V68.324l10.81-8.341Z" transform="translate(67.1 25.969)" fill="#07adad"/>
        <path id="Polígono_62-3" data-name="Polígono 62" d="M9,0l9,12H0Z" transform="translate(207 76.711) rotate(90)" fill="#07adad"/>
      </g>
    </g>
    <path id="Trazado_609405" data-name="Trazado 609405" d="M25.84,10.4H23.168V15H21.66V3.625h3.766a4.457,4.457,0,0,1,2.957.875,3.148,3.148,0,0,1,1.035,2.547A3.062,3.062,0,0,1,28.844,8.9a3.428,3.428,0,0,1-1.6,1.18l2.672,4.828V15H28.309ZM23.168,9.172h2.3a2.6,2.6,0,0,0,1.777-.579,1.959,1.959,0,0,0,.66-1.55,2.062,2.062,0,0,0-.629-1.62,2.663,2.663,0,0,0-1.816-.571h-2.3ZM34.8,15.156A3.693,3.693,0,0,1,32,14.027a4.19,4.19,0,0,1-1.078-3.02v-.266a5.073,5.073,0,0,1,.48-2.246A3.748,3.748,0,0,1,32.75,6.949a3.378,3.378,0,0,1,1.871-.559,3.166,3.166,0,0,1,2.563,1.086,4.7,4.7,0,0,1,.914,3.109v.6H32.371a3,3,0,0,0,.73,2.02,2.3,2.3,0,0,0,1.777.77,2.517,2.517,0,0,0,1.3-.312,3.259,3.259,0,0,0,.93-.828l.883.688A3.55,3.55,0,0,1,34.8,15.156Zm-.18-7.578a1.928,1.928,0,0,0-1.469.637A3.1,3.1,0,0,0,32.418,10h4.234V9.891a2.753,2.753,0,0,0-.594-1.707A1.815,1.815,0,0,0,34.621,7.578ZM40.48,15V7.664H39.145V6.547H40.48V5.68a2.878,2.878,0,0,1,.727-2.1,2.745,2.745,0,0,1,2.055-.742,3.816,3.816,0,0,1,.992.132l-.078,1.165a4.151,4.151,0,0,0-.781-.07,1.41,1.41,0,0,0-1.086.411,1.669,1.669,0,0,0-.383,1.18v.893h1.8V7.664h-1.8V15Zm8.93-7.156a4.331,4.331,0,0,0-.711-.055A1.9,1.9,0,0,0,46.77,9v6H45.324V6.547H46.73l.023.977A2.251,2.251,0,0,1,48.77,6.391a1.477,1.477,0,0,1,.641.109ZM52.309,15H50.863V6.547h1.445ZM50.746,4.3a.863.863,0,0,1,.215-.594.807.807,0,0,1,.637-.242.819.819,0,0,1,.641.242.854.854,0,0,1,.219.594.826.826,0,0,1-.219.586.834.834,0,0,1-.641.234.821.821,0,0,1-.637-.234A.834.834,0,0,1,50.746,4.3Zm3.531,6.4a4.968,4.968,0,0,1,.914-3.145,3.151,3.151,0,0,1,4.836-.074l.07-.937h1.32V14.8a3.439,3.439,0,0,1-.973,2.586,3.589,3.589,0,0,1-2.613.945,4.348,4.348,0,0,1-1.789-.391,3.08,3.08,0,0,1-1.336-1.07l.75-.867a2.826,2.826,0,0,0,2.273,1.148,2.214,2.214,0,0,0,1.645-.594,2.269,2.269,0,0,0,.59-1.672v-.727a2.971,2.971,0,0,1-2.367,1,2.887,2.887,0,0,1-2.4-1.2A5.224,5.224,0,0,1,54.277,10.7Zm1.453.164a3.79,3.79,0,0,0,.586,2.246,1.9,1.9,0,0,0,1.641.816,2.117,2.117,0,0,0,2.008-1.242V8.828a2.142,2.142,0,0,0-1.992-1.211,1.921,1.921,0,0,0-1.648.82A4.128,4.128,0,0,0,55.73,10.867Zm11.375,4.289a3.693,3.693,0,0,1-2.8-1.129,4.19,4.19,0,0,1-1.078-3.02v-.266a5.073,5.073,0,0,1,.48-2.246,3.748,3.748,0,0,1,1.344-1.547,3.378,3.378,0,0,1,1.871-.559,3.166,3.166,0,0,1,2.563,1.086,4.7,4.7,0,0,1,.914,3.109v.6H64.676a3,3,0,0,0,.73,2.02,2.3,2.3,0,0,0,1.777.77,2.517,2.517,0,0,0,1.3-.312,3.259,3.259,0,0,0,.93-.828l.883.688A3.55,3.55,0,0,1,67.105,15.156Zm-.18-7.578a1.928,1.928,0,0,0-1.469.637A3.1,3.1,0,0,0,64.723,10h4.234V9.891a2.753,2.753,0,0,0-.594-1.707A1.815,1.815,0,0,0,66.926,7.578Zm9.234.266a4.331,4.331,0,0,0-.711-.055A1.9,1.9,0,0,0,73.52,9v6H72.074V6.547H73.48l.023.977A2.251,2.251,0,0,1,75.52,6.391a1.477,1.477,0,0,1,.641.109ZM79.059,15H77.613V6.547h1.445ZM77.5,4.3a.863.863,0,0,1,.215-.594.807.807,0,0,1,.637-.242.819.819,0,0,1,.641.242.854.854,0,0,1,.219.594.826.826,0,0,1-.219.586.834.834,0,0,1-.641.234.821.821,0,0,1-.637-.234A.834.834,0,0,1,77.5,4.3ZM80.988,10.7a4.993,4.993,0,0,1,.488-2.234A3.643,3.643,0,0,1,82.836,6.93a3.7,3.7,0,0,1,1.988-.539,3.565,3.565,0,0,1,2.793,1.2,4.6,4.6,0,0,1,1.066,3.18v.1a5.036,5.036,0,0,1-.473,2.215,3.589,3.589,0,0,1-1.352,1.527,3.743,3.743,0,0,1-2.02.547,3.556,3.556,0,0,1-2.785-1.2A4.575,4.575,0,0,1,80.988,10.8Zm1.453.172a3.616,3.616,0,0,0,.652,2.258,2.211,2.211,0,0,0,3.5-.012,3.955,3.955,0,0,0,.648-2.418,3.61,3.61,0,0,0-.66-2.254,2.1,2.1,0,0,0-1.754-.863A2.075,2.075,0,0,0,83.1,8.43,3.925,3.925,0,0,0,82.441,10.867Zm12.977,1.891a1.064,1.064,0,0,0-.441-.91,4.249,4.249,0,0,0-1.539-.559,7.277,7.277,0,0,1-1.742-.562,2.479,2.479,0,0,1-.953-.781,1.869,1.869,0,0,1-.309-1.078,2.193,2.193,0,0,1,.879-1.758,3.432,3.432,0,0,1,2.246-.719,3.532,3.532,0,0,1,2.332.742,2.357,2.357,0,0,1,.895,1.9H95.332a1.3,1.3,0,0,0-.5-1.023,1.888,1.888,0,0,0-1.27-.43,1.976,1.976,0,0,0-1.234.344,1.082,1.082,0,0,0-.445.9.877.877,0,0,0,.414.789,5.1,5.1,0,0,0,1.5.508,7.8,7.8,0,0,1,1.754.578,2.558,2.558,0,0,1,1,.809,1.988,1.988,0,0,1,.324,1.152,2.163,2.163,0,0,1-.906,1.816,3.8,3.8,0,0,1-2.352.684,4.257,4.257,0,0,1-1.8-.359,2.922,2.922,0,0,1-1.223-1,2.42,2.42,0,0,1-.441-1.395H91.59a1.5,1.5,0,0,0,.582,1.152,2.258,2.258,0,0,0,1.434.426,2.331,2.331,0,0,0,1.316-.332A1.02,1.02,0,0,0,95.418,12.758Z" transform="translate(-9167.896 7243.063)" fill="#12263f"/>
    <path id="Trazado_609406" data-name="Trazado 609406" d="M18.2,15H16.691L10.965,6.234V15H9.457V3.625h1.508l5.742,8.8v-8.8H18.2Zm2.055-4.3a4.993,4.993,0,0,1,.488-2.234A3.643,3.643,0,0,1,22.1,6.93a3.7,3.7,0,0,1,1.988-.539,3.565,3.565,0,0,1,2.793,1.2,4.6,4.6,0,0,1,1.066,3.18v.1a5.036,5.036,0,0,1-.473,2.215,3.589,3.589,0,0,1-1.352,1.527,3.743,3.743,0,0,1-2.02.547,3.556,3.556,0,0,1-2.785-1.2A4.575,4.575,0,0,1,20.254,10.8Zm1.453.172a3.616,3.616,0,0,0,.652,2.258,2.211,2.211,0,0,0,3.5-.012A3.955,3.955,0,0,0,26.5,10.7a3.61,3.61,0,0,0-.66-2.254,2.1,2.1,0,0,0-1.754-.863,2.075,2.075,0,0,0-1.727.852A3.925,3.925,0,0,0,21.707,10.867ZM31.723,4.5V6.547H33.3V7.664H31.723v5.249a1.173,1.173,0,0,0,.211.763.888.888,0,0,0,.719.254,3.5,3.5,0,0,0,.688-.094V15a4.215,4.215,0,0,1-1.109.155,1.8,1.8,0,0,1-1.461-.586,2.517,2.517,0,0,1-.492-1.664V7.664H28.738V6.547h1.539V4.5ZM36.559,15H35.113V6.547h1.445ZM35,4.3a.863.863,0,0,1,.215-.594.807.807,0,0,1,.637-.242.819.819,0,0,1,.641.242.854.854,0,0,1,.219.594.826.826,0,0,1-.219.586.834.834,0,0,1-.641.234.821.821,0,0,1-.637-.234A.834.834,0,0,1,35,4.3Zm7.266,9.672a2.082,2.082,0,0,0,1.352-.469,1.649,1.649,0,0,0,.641-1.172h1.367a2.621,2.621,0,0,1-.5,1.383,3.293,3.293,0,0,1-1.23,1.047,3.55,3.55,0,0,1-1.629.391A3.482,3.482,0,0,1,39.516,14a4.59,4.59,0,0,1-1.02-3.152v-.242a5.089,5.089,0,0,1,.453-2.2,3.451,3.451,0,0,1,1.3-1.492,3.7,3.7,0,0,1,2-.531,3.39,3.39,0,0,1,2.363.852,3.043,3.043,0,0,1,1,2.211H44.254a1.992,1.992,0,0,0-.621-1.348,1.932,1.932,0,0,0-1.379-.527,2.023,2.023,0,0,0-1.707.793,3.724,3.724,0,0,0-.605,2.293v.273a3.65,3.65,0,0,0,.6,2.25A2.033,2.033,0,0,0,42.262,13.977ZM48.816,15H47.371V6.547h1.445ZM47.254,4.3a.863.863,0,0,1,.215-.594.807.807,0,0,1,.637-.242.819.819,0,0,1,.641.242.854.854,0,0,1,.219.594.826.826,0,0,1-.219.586.834.834,0,0,1-.641.234.821.821,0,0,1-.637-.234A.834.834,0,0,1,47.254,4.3ZM56.348,15a3.036,3.036,0,0,1-.2-.891,3.225,3.225,0,0,1-2.406,1.047,2.984,2.984,0,0,1-2.051-.707,2.287,2.287,0,0,1-.8-1.793,2.39,2.39,0,0,1,1-2.051,4.733,4.733,0,0,1,2.824-.73h1.406V9.211A1.623,1.623,0,0,0,55.668,8a1.821,1.821,0,0,0-1.336-.449,2.107,2.107,0,0,0-1.3.391,1.151,1.151,0,0,0-.523.945H51.059a2,2,0,0,1,.449-1.223,3.066,3.066,0,0,1,1.219-.934,4.1,4.1,0,0,1,1.691-.344,3.342,3.342,0,0,1,2.289.73,2.635,2.635,0,0,1,.859,2.012v3.891a4.757,4.757,0,0,0,.3,1.852V15Zm-2.4-1.1a2.54,2.54,0,0,0,1.289-.352,2.127,2.127,0,0,0,.883-.914V10.9H54.988q-2.656,0-2.656,1.555a1.316,1.316,0,0,0,.453,1.063A1.742,1.742,0,0,0,53.949,13.9Zm10.8-1.141a1.064,1.064,0,0,0-.441-.91,4.249,4.249,0,0,0-1.539-.559,7.277,7.277,0,0,1-1.742-.562,2.479,2.479,0,0,1-.953-.781,1.869,1.869,0,0,1-.309-1.078,2.193,2.193,0,0,1,.879-1.758,3.432,3.432,0,0,1,2.246-.719,3.532,3.532,0,0,1,2.332.742,2.357,2.357,0,0,1,.895,1.9H64.668a1.3,1.3,0,0,0-.5-1.023,1.888,1.888,0,0,0-1.27-.43,1.976,1.976,0,0,0-1.234.344,1.082,1.082,0,0,0-.445.9.877.877,0,0,0,.414.789,5.1,5.1,0,0,0,1.5.508,7.8,7.8,0,0,1,1.754.578,2.558,2.558,0,0,1,1,.809,1.988,1.988,0,0,1,.324,1.152,2.163,2.163,0,0,1-.906,1.816,3.8,3.8,0,0,1-2.352.684,4.257,4.257,0,0,1-1.8-.359,2.922,2.922,0,0,1-1.223-1A2.42,2.42,0,0,1,59.48,12.4h1.445a1.5,1.5,0,0,0,.582,1.152,2.258,2.258,0,0,0,1.434.426,2.331,2.331,0,0,0,1.316-.332A1.02,1.02,0,0,0,64.754,12.758Zm10.8,2.4a3.693,3.693,0,0,1-2.8-1.129,4.19,4.19,0,0,1-1.078-3.02v-.266a5.073,5.073,0,0,1,.48-2.246A3.748,3.748,0,0,1,73.5,6.949a3.378,3.378,0,0,1,1.871-.559,3.166,3.166,0,0,1,2.563,1.086,4.7,4.7,0,0,1,.914,3.109v.6H73.121a3,3,0,0,0,.73,2.02,2.3,2.3,0,0,0,1.777.77,2.517,2.517,0,0,0,1.3-.312,3.259,3.259,0,0,0,.93-.828l.883.688A3.55,3.55,0,0,1,75.551,15.156Zm-.18-7.578a1.928,1.928,0,0,0-1.469.637A3.1,3.1,0,0,0,73.168,10H77.4V9.891a2.753,2.753,0,0,0-.594-1.707A1.815,1.815,0,0,0,75.371,7.578Zm6.516-1.031.047,1.063a3.08,3.08,0,0,1,2.531-1.219q2.68,0,2.7,3.023V15H85.723V9.406A1.946,1.946,0,0,0,85.3,8.055a1.675,1.675,0,0,0-1.277-.437,2.086,2.086,0,0,0-1.234.375,2.546,2.546,0,0,0-.828.984V15H80.52V6.547Zm16.641,7.617a3.07,3.07,0,0,1-2.477.992,2.628,2.628,0,0,1-2.059-.785,3.4,3.4,0,0,1-.715-2.324v-5.5h1.445v5.461q0,1.922,1.563,1.922a2.163,2.163,0,0,0,2.2-1.234V6.547h1.445V15H98.559ZM103.5,6.547l.047,1.063a3.08,3.08,0,0,1,2.531-1.219q2.68,0,2.7,3.023V15h-1.445V9.406a1.946,1.946,0,0,0-.418-1.352,1.675,1.675,0,0,0-1.277-.437,2.086,2.086,0,0,0-1.234.375,2.546,2.546,0,0,0-.828.984V15h-1.445V6.547Zm-69.4,28.32a5.062,5.062,0,0,1-.883,3.109,2.829,2.829,0,0,1-2.391,1.18A3.1,3.1,0,0,1,28.4,38.18v4.07H26.953v-11.7h1.32l.07.938A2.977,2.977,0,0,1,30.8,30.391a2.882,2.882,0,0,1,2.41,1.148,5.117,5.117,0,0,1,.887,3.2ZM32.648,34.7a3.735,3.735,0,0,0-.609-2.258,1.963,1.963,0,0,0-1.672-.828A2.125,2.125,0,0,0,28.4,32.781V36.82a2.129,2.129,0,0,0,1.984,1.156,1.954,1.954,0,0,0,1.652-.824A4.077,4.077,0,0,0,32.648,34.7Zm6.789,4.453a3.693,3.693,0,0,1-2.8-1.129,4.19,4.19,0,0,1-1.078-3.02v-.266a5.073,5.073,0,0,1,.48-2.246,3.748,3.748,0,0,1,1.344-1.547,3.378,3.378,0,0,1,1.871-.559,3.166,3.166,0,0,1,2.563,1.086,4.7,4.7,0,0,1,.914,3.109v.6H37.008a3,3,0,0,0,.73,2.02,2.3,2.3,0,0,0,1.777.77,2.517,2.517,0,0,0,1.3-.312,3.258,3.258,0,0,0,.93-.828l.883.688A3.55,3.55,0,0,1,39.438,39.156Zm-.18-7.578a1.928,1.928,0,0,0-1.469.637A3.1,3.1,0,0,0,37.055,34h4.234v-.109a2.753,2.753,0,0,0-.594-1.707A1.815,1.815,0,0,0,39.258,31.578Zm9.234.266a4.331,4.331,0,0,0-.711-.055A1.9,1.9,0,0,0,45.852,33v6H44.406V30.547h1.406l.023.977a2.251,2.251,0,0,1,2.016-1.133,1.477,1.477,0,0,1,.641.109ZM51.391,39H49.945V30.547h1.445ZM49.828,28.3a.863.863,0,0,1,.215-.594.807.807,0,0,1,.637-.242.819.819,0,0,1,.641.242.854.854,0,0,1,.219.594.826.826,0,0,1-.219.586.834.834,0,0,1-.641.234.821.821,0,0,1-.637-.234A.834.834,0,0,1,49.828,28.3ZM53.32,34.7a4.993,4.993,0,0,1,.488-2.234,3.643,3.643,0,0,1,1.359-1.531,3.7,3.7,0,0,1,1.988-.539,3.565,3.565,0,0,1,2.793,1.2,4.6,4.6,0,0,1,1.066,3.18v.1a5.036,5.036,0,0,1-.473,2.215,3.589,3.589,0,0,1-1.352,1.527,3.743,3.743,0,0,1-2.02.547,3.556,3.556,0,0,1-2.785-1.2A4.575,4.575,0,0,1,53.32,34.8Zm1.453.172a3.616,3.616,0,0,0,.652,2.258,2.211,2.211,0,0,0,3.5-.012A3.955,3.955,0,0,0,59.57,34.7a3.61,3.61,0,0,0-.66-2.254,2.1,2.1,0,0,0-1.754-.863,2.075,2.075,0,0,0-1.727.852A3.925,3.925,0,0,0,54.773,34.867ZM57.813,27h1.75l-2.094,2.3-1.164,0Zm4.664,7.7a4.952,4.952,0,0,1,.922-3.129,3.137,3.137,0,0,1,4.766-.168V27h1.445V39H68.281l-.07-.906A2.943,2.943,0,0,1,65.8,39.156a2.887,2.887,0,0,1-2.395-1.2,5.008,5.008,0,0,1-.926-3.141Zm1.445.164a3.749,3.749,0,0,0,.594,2.25,1.92,1.92,0,0,0,1.641.813A2.108,2.108,0,0,0,68.164,36.7V32.813a2.125,2.125,0,0,0-1.992-1.2,1.929,1.929,0,0,0-1.656.82A4.128,4.128,0,0,0,63.922,34.867ZM73.422,39H71.977V30.547h1.445ZM71.859,28.3a.863.863,0,0,1,.215-.594.807.807,0,0,1,.637-.242.819.819,0,0,1,.641.242.854.854,0,0,1,.219.594.826.826,0,0,1-.219.586.834.834,0,0,1-.641.234.821.821,0,0,1-.637-.234A.834.834,0,0,1,71.859,28.3Zm7.266,9.672a2.082,2.082,0,0,0,1.352-.469,1.649,1.649,0,0,0,.641-1.172h1.367a2.621,2.621,0,0,1-.5,1.383,3.293,3.293,0,0,1-1.23,1.047,3.55,3.55,0,0,1-1.629.391A3.482,3.482,0,0,1,76.379,38a4.59,4.59,0,0,1-1.02-3.152v-.242a5.089,5.089,0,0,1,.453-2.2,3.451,3.451,0,0,1,1.3-1.492,3.7,3.7,0,0,1,2-.531,3.39,3.39,0,0,1,2.363.852,3.043,3.043,0,0,1,1,2.211H81.117a1.992,1.992,0,0,0-.621-1.348,1.932,1.932,0,0,0-1.379-.527,2.023,2.023,0,0,0-1.707.793,3.724,3.724,0,0,0-.605,2.293v.273a3.65,3.65,0,0,0,.6,2.25A2.033,2.033,0,0,0,79.125,37.977Zm4.6-3.281a4.993,4.993,0,0,1,.488-2.234,3.643,3.643,0,0,1,1.359-1.531,3.7,3.7,0,0,1,1.988-.539,3.565,3.565,0,0,1,2.793,1.2,4.6,4.6,0,0,1,1.066,3.18v.1a5.036,5.036,0,0,1-.473,2.215A3.589,3.589,0,0,1,89.6,38.609a3.743,3.743,0,0,1-2.02.547,3.556,3.556,0,0,1-2.785-1.2A4.575,4.575,0,0,1,83.727,34.8Zm1.453.172a3.616,3.616,0,0,0,.652,2.258,2.211,2.211,0,0,0,3.5-.012,3.955,3.955,0,0,0,.648-2.418,3.61,3.61,0,0,0-.66-2.254,2.1,2.1,0,0,0-1.754-.863,2.075,2.075,0,0,0-1.727.852A3.925,3.925,0,0,0,85.18,34.867ZM9.914,58.7a4.968,4.968,0,0,1,.914-3.145,2.923,2.923,0,0,1,2.422-1.168,2.908,2.908,0,0,1,2.414,1.094l.07-.937h1.32V62.8a3.439,3.439,0,0,1-.973,2.586,3.589,3.589,0,0,1-2.613.945,4.348,4.348,0,0,1-1.789-.391,3.08,3.08,0,0,1-1.336-1.07l.75-.867a2.826,2.826,0,0,0,2.273,1.148,2.214,2.214,0,0,0,1.645-.594,2.269,2.269,0,0,0,.59-1.672v-.727a2.971,2.971,0,0,1-2.367,1,2.887,2.887,0,0,1-2.4-1.2A5.224,5.224,0,0,1,9.914,58.7Zm1.453.164a3.79,3.79,0,0,0,.586,2.246,1.9,1.9,0,0,0,1.641.816A2.117,2.117,0,0,0,15.6,60.688V56.828a2.142,2.142,0,0,0-1.992-1.211,1.921,1.921,0,0,0-1.648.82A4.128,4.128,0,0,0,11.367,58.867ZM23.32,55.844a4.331,4.331,0,0,0-.711-.055A1.9,1.9,0,0,0,20.68,57v6H19.234V54.547h1.406l.023.977a2.251,2.251,0,0,1,2.016-1.133,1.477,1.477,0,0,1,.641.109ZM29.555,63a3.036,3.036,0,0,1-.2-.891,3.225,3.225,0,0,1-2.406,1.047,2.984,2.984,0,0,1-2.051-.707,2.287,2.287,0,0,1-.8-1.793,2.39,2.39,0,0,1,1-2.051,4.733,4.733,0,0,1,2.824-.73h1.406v-.664A1.623,1.623,0,0,0,28.875,56a1.821,1.821,0,0,0-1.336-.449,2.107,2.107,0,0,0-1.3.391,1.151,1.151,0,0,0-.523.945H24.266a2,2,0,0,1,.449-1.223,3.066,3.066,0,0,1,1.219-.934,4.1,4.1,0,0,1,1.691-.344,3.342,3.342,0,0,1,2.289.73,2.635,2.635,0,0,1,.859,2.012v3.891a4.757,4.757,0,0,0,.3,1.852V63Zm-2.4-1.1a2.54,2.54,0,0,0,1.289-.352,2.127,2.127,0,0,0,.883-.914V58.9H28.2q-2.656,0-2.656,1.555a1.316,1.316,0,0,0,.453,1.063A1.742,1.742,0,0,0,27.156,61.9ZM35,52.5v2.047h1.578v1.117H35v5.249a1.173,1.173,0,0,0,.211.763.888.888,0,0,0,.719.254,3.5,3.5,0,0,0,.688-.094V63a4.215,4.215,0,0,1-1.109.155,1.8,1.8,0,0,1-1.461-.586,2.517,2.517,0,0,1-.492-1.664V55.664H32.016V54.547h1.539V52.5Zm8.484,9.664a3.07,3.07,0,0,1-2.477.992,2.628,2.628,0,0,1-2.059-.785,3.4,3.4,0,0,1-.715-2.324v-5.5H39.68v5.461q0,1.922,1.563,1.922a2.163,2.163,0,0,0,2.2-1.234V54.547h1.445V63H43.516ZM48.656,63H47.211V54.547h1.445ZM47.094,52.3a.863.863,0,0,1,.215-.594.807.807,0,0,1,.637-.242.819.819,0,0,1,.641.242.854.854,0,0,1,.219.594.826.826,0,0,1-.219.586.834.834,0,0,1-.641.234.821.821,0,0,1-.637-.234A.834.834,0,0,1,47.094,52.3Zm5.836.2v2.047h1.578v1.117H52.93v5.249a1.173,1.173,0,0,0,.211.763.888.888,0,0,0,.719.254,3.5,3.5,0,0,0,.688-.094V63a4.215,4.215,0,0,1-1.109.155,1.8,1.8,0,0,1-1.461-.586,2.517,2.517,0,0,1-.492-1.664V55.664H49.945V54.547h1.539V52.5ZM61.414,63a3.036,3.036,0,0,1-.2-.891A3.225,3.225,0,0,1,58.8,63.156a2.984,2.984,0,0,1-2.051-.707,2.287,2.287,0,0,1-.8-1.793,2.39,2.39,0,0,1,1-2.051,4.733,4.733,0,0,1,2.824-.73h1.406v-.664A1.623,1.623,0,0,0,60.734,56a1.821,1.821,0,0,0-1.336-.449,2.107,2.107,0,0,0-1.3.391,1.151,1.151,0,0,0-.523.945H56.125a2,2,0,0,1,.449-1.223,3.066,3.066,0,0,1,1.219-.934,4.1,4.1,0,0,1,1.691-.344,3.342,3.342,0,0,1,2.289.73,2.635,2.635,0,0,1,.859,2.012v3.891a4.757,4.757,0,0,0,.3,1.852V63Zm-2.4-1.1a2.54,2.54,0,0,0,1.289-.352,2.127,2.127,0,0,0,.883-.914V58.9H60.055q-2.656,0-2.656,1.555a1.316,1.316,0,0,0,.453,1.063A1.742,1.742,0,0,0,59.016,61.9Zm7.242-7.352.039.938A3.122,3.122,0,0,1,68.8,54.391a2.417,2.417,0,0,1,2.414,1.359,3.2,3.2,0,0,1,1.1-.984,3.242,3.242,0,0,1,1.6-.375q2.781,0,2.828,2.945V63H75.3V57.422a1.941,1.941,0,0,0-.414-1.355,1.823,1.823,0,0,0-1.391-.449,1.916,1.916,0,0,0-1.336.48,1.949,1.949,0,0,0-.617,1.293V63H70.086V57.461a1.613,1.613,0,0,0-1.8-1.844,1.934,1.934,0,0,0-1.945,1.211V63H64.891V54.547ZM82.43,63.156a3.693,3.693,0,0,1-2.8-1.129,4.19,4.19,0,0,1-1.078-3.02v-.266a5.073,5.073,0,0,1,.48-2.246,3.748,3.748,0,0,1,1.344-1.547,3.378,3.378,0,0,1,1.871-.559,3.166,3.166,0,0,1,2.563,1.086,4.7,4.7,0,0,1,.914,3.109v.6H80a3,3,0,0,0,.73,2.02,2.3,2.3,0,0,0,1.777.77,2.517,2.517,0,0,0,1.3-.312,3.259,3.259,0,0,0,.93-.828l.883.688A3.55,3.55,0,0,1,82.43,63.156Zm-.18-7.578a1.928,1.928,0,0,0-1.469.637A3.1,3.1,0,0,0,80.047,58h4.234v-.109a2.753,2.753,0,0,0-.594-1.707A1.815,1.815,0,0,0,82.25,55.578Zm6.516-1.031.047,1.063a3.08,3.08,0,0,1,2.531-1.219q2.68,0,2.7,3.023V63H92.6V57.406a1.946,1.946,0,0,0-.418-1.352,1.675,1.675,0,0,0-1.277-.437,2.086,2.086,0,0,0-1.234.375,2.546,2.546,0,0,0-.828.984V63H87.4V54.547ZM98.188,52.5v2.047h1.578v1.117H98.188v5.249a1.173,1.173,0,0,0,.211.763.888.888,0,0,0,.719.254,3.5,3.5,0,0,0,.688-.094V63a4.215,4.215,0,0,1-1.109.155,1.8,1.8,0,0,1-1.461-.586,2.517,2.517,0,0,1-.492-1.664V55.664H95.2V54.547h1.539V52.5Zm6.773,10.656a3.693,3.693,0,0,1-2.8-1.129,4.19,4.19,0,0,1-1.078-3.02v-.266a5.073,5.073,0,0,1,.48-2.246,3.748,3.748,0,0,1,1.344-1.547,3.378,3.378,0,0,1,1.871-.559,3.166,3.166,0,0,1,2.563,1.086,4.7,4.7,0,0,1,.914,3.109v.6h-5.727a3,3,0,0,0,.73,2.02,2.3,2.3,0,0,0,1.777.77,2.517,2.517,0,0,0,1.3-.312,3.259,3.259,0,0,0,.93-.828l.883.688A3.55,3.55,0,0,1,104.961,63.156Zm-.18-7.578a1.928,1.928,0,0,0-1.469.637A3.1,3.1,0,0,0,102.578,58h4.234v-.109a2.753,2.753,0,0,0-.594-1.707A1.815,1.815,0,0,0,104.781,55.578Z" transform="translate(-8952.896 7218.38)" fill="#12263f"/>
    <path id="Trazado_609407" data-name="Trazado 609407" d="M44.1,12.023H39.336L38.266,15H36.719L41.063,3.625h1.313L46.727,15H45.188ZM39.789,10.8h3.867l-1.937-5.32Zm15.383.07a5.062,5.062,0,0,1-.883,3.109,2.829,2.829,0,0,1-2.391,1.18,3.1,3.1,0,0,1-2.422-.977v4.07H48.031V6.547h1.32l.07.938a2.977,2.977,0,0,1,2.453-1.094,2.882,2.882,0,0,1,2.41,1.148,5.117,5.117,0,0,1,.887,3.2ZM53.727,10.7a3.735,3.735,0,0,0-.609-2.258,1.963,1.963,0,0,0-1.672-.828,2.125,2.125,0,0,0-1.969,1.164V12.82a2.129,2.129,0,0,0,1.984,1.156,1.954,1.954,0,0,0,1.652-.824A4.077,4.077,0,0,0,53.727,10.7Zm2.9-.008a4.993,4.993,0,0,1,.488-2.234A3.643,3.643,0,0,1,58.473,6.93a3.7,3.7,0,0,1,1.988-.539,3.565,3.565,0,0,1,2.793,1.2,4.6,4.6,0,0,1,1.066,3.18v.1a5.036,5.036,0,0,1-.473,2.215A3.589,3.589,0,0,1,62.5,14.609a3.743,3.743,0,0,1-2.02.547,3.556,3.556,0,0,1-2.785-1.2A4.575,4.575,0,0,1,56.625,10.8Zm1.453.172a3.616,3.616,0,0,0,.652,2.258,2.211,2.211,0,0,0,3.5-.012,3.955,3.955,0,0,0,.648-2.418,3.61,3.61,0,0,0-.66-2.254,2.1,2.1,0,0,0-1.754-.863,2.075,2.075,0,0,0-1.727.852A3.925,3.925,0,0,0,58.078,10.867Zm10.7,2.016L70.75,6.547H72.3L68.9,16.3q-.789,2.109-2.508,2.109l-.273-.023-.539-.1V17.117l.391.031a1.923,1.923,0,0,0,1.145-.3,2.149,2.149,0,0,0,.676-1.086l.32-.859L65.094,6.547h1.578Zm4.3-2.187a4.993,4.993,0,0,1,.488-2.234A3.643,3.643,0,0,1,74.934,6.93a3.7,3.7,0,0,1,1.988-.539,3.565,3.565,0,0,1,2.793,1.2,4.6,4.6,0,0,1,1.066,3.18v.1a5.036,5.036,0,0,1-.473,2.215,3.589,3.589,0,0,1-1.352,1.527,3.743,3.743,0,0,1-2.02.547,3.556,3.556,0,0,1-2.785-1.2A4.575,4.575,0,0,1,73.086,10.8Zm1.453.172a3.616,3.616,0,0,0,.652,2.258,2.211,2.211,0,0,0,3.5-.012,3.955,3.955,0,0,0,.648-2.418,3.61,3.61,0,0,0-.66-2.254,2.1,2.1,0,0,0-1.754-.863A2.075,2.075,0,0,0,75.2,8.43,3.925,3.925,0,0,0,74.539,10.867ZM12.738,39V31.664H11.4V30.547h1.336v-.719a2.937,2.937,0,0,1,.809-2.2,3.136,3.136,0,0,1,2.285-.789,6.881,6.881,0,0,1,2.211.477L17.8,28.531a5.008,5.008,0,0,0-1.859-.391,1.819,1.819,0,0,0-1.34.418,1.723,1.723,0,0,0-.41,1.254v.734h1.727v1.117H14.191V39Zm6.023,0H17.309V30.547h1.453Zm3.719-8.453.047,1.063a3.08,3.08,0,0,1,2.531-1.219q2.68,0,2.7,3.023V39H26.316V33.406a1.946,1.946,0,0,0-.418-1.352,1.675,1.675,0,0,0-1.277-.437,2.086,2.086,0,0,0-1.234.375,2.546,2.546,0,0,0-.828.984V39H21.113V30.547ZM35.16,39a3.036,3.036,0,0,1-.2-.891,3.225,3.225,0,0,1-2.406,1.047,2.984,2.984,0,0,1-2.051-.707,2.287,2.287,0,0,1-.8-1.793,2.39,2.39,0,0,1,1-2.051,4.733,4.733,0,0,1,2.824-.73h1.406v-.664A1.623,1.623,0,0,0,34.48,32a1.821,1.821,0,0,0-1.336-.449,2.107,2.107,0,0,0-1.3.391,1.151,1.151,0,0,0-.523.945H29.871a2,2,0,0,1,.449-1.223,3.066,3.066,0,0,1,1.219-.934,4.1,4.1,0,0,1,1.691-.344,3.342,3.342,0,0,1,2.289.73,2.635,2.635,0,0,1,.859,2.012v3.891a4.757,4.757,0,0,0,.3,1.852V39Zm-2.4-1.1a2.54,2.54,0,0,0,1.289-.352,2.127,2.127,0,0,0,.883-.914V34.9H33.8q-2.656,0-2.656,1.555a1.316,1.316,0,0,0,.453,1.063A1.742,1.742,0,0,0,32.762,37.9Zm7.25-7.352.047,1.063a3.08,3.08,0,0,1,2.531-1.219q2.68,0,2.7,3.023V39H43.848V33.406a1.946,1.946,0,0,0-.418-1.352,1.675,1.675,0,0,0-1.277-.437,2.086,2.086,0,0,0-1.234.375,2.546,2.546,0,0,0-.828.984V39H38.645V30.547Zm10.852,7.43a2.082,2.082,0,0,0,1.352-.469,1.649,1.649,0,0,0,.641-1.172h1.367a2.621,2.621,0,0,1-.5,1.383,3.293,3.293,0,0,1-1.23,1.047,3.55,3.55,0,0,1-1.629.391A3.482,3.482,0,0,1,48.117,38a4.59,4.59,0,0,1-1.02-3.152v-.242a5.089,5.089,0,0,1,.453-2.2,3.451,3.451,0,0,1,1.3-1.492,3.7,3.7,0,0,1,2-.531,3.39,3.39,0,0,1,2.363.852,3.043,3.043,0,0,1,1,2.211H52.855a1.992,1.992,0,0,0-.621-1.348,1.932,1.932,0,0,0-1.379-.527,2.023,2.023,0,0,0-1.707.793,3.724,3.724,0,0,0-.605,2.293v.273a3.65,3.65,0,0,0,.6,2.25A2.033,2.033,0,0,0,50.863,37.977ZM57.418,39H55.973V30.547h1.445ZM55.855,28.3a.863.863,0,0,1,.215-.594.807.807,0,0,1,.637-.242.819.819,0,0,1,.641.242.854.854,0,0,1,.219.594.826.826,0,0,1-.219.586.834.834,0,0,1-.641.234.821.821,0,0,1-.637-.234A.834.834,0,0,1,55.855,28.3Zm7.383,10.852a3.693,3.693,0,0,1-2.8-1.129,4.19,4.19,0,0,1-1.078-3.02v-.266a5.073,5.073,0,0,1,.48-2.246,3.748,3.748,0,0,1,1.344-1.547,3.378,3.378,0,0,1,1.871-.559,3.166,3.166,0,0,1,2.563,1.086,4.7,4.7,0,0,1,.914,3.109v.6H60.809a3,3,0,0,0,.73,2.02,2.3,2.3,0,0,0,1.777.77,2.517,2.517,0,0,0,1.3-.312,3.259,3.259,0,0,0,.93-.828l.883.688A3.55,3.55,0,0,1,63.238,39.156Zm-.18-7.578a1.928,1.928,0,0,0-1.469.637A3.1,3.1,0,0,0,60.855,34H65.09v-.109a2.753,2.753,0,0,0-.594-1.707A1.815,1.815,0,0,0,63.059,31.578Zm9.234.266a4.331,4.331,0,0,0-.711-.055A1.9,1.9,0,0,0,69.652,33v6H68.207V30.547h1.406l.023.977a2.251,2.251,0,0,1,2.016-1.133,1.477,1.477,0,0,1,.641.109Zm.789,2.852a4.993,4.993,0,0,1,.488-2.234A3.643,3.643,0,0,1,74.93,30.93a3.7,3.7,0,0,1,1.988-.539,3.565,3.565,0,0,1,2.793,1.2,4.6,4.6,0,0,1,1.066,3.18v.1a5.036,5.036,0,0,1-.473,2.215,3.589,3.589,0,0,1-1.352,1.527,3.743,3.743,0,0,1-2.02.547,3.556,3.556,0,0,1-2.785-1.2A4.575,4.575,0,0,1,73.082,34.8Zm1.453.172a3.616,3.616,0,0,0,.652,2.258,2.211,2.211,0,0,0,3.5-.012,3.955,3.955,0,0,0,.648-2.418,3.61,3.61,0,0,0-.66-2.254,2.1,2.1,0,0,0-1.754-.863,2.075,2.075,0,0,0-1.727.852A3.925,3.925,0,0,0,74.535,34.867ZM86.2,34.7a4.952,4.952,0,0,1,.922-3.129,3.137,3.137,0,0,1,4.766-.168V27h1.445V39H92l-.07-.906a2.943,2.943,0,0,1-2.414,1.063,2.887,2.887,0,0,1-2.395-1.2,5.008,5.008,0,0,1-.926-3.141Zm1.445.164a3.749,3.749,0,0,0,.594,2.25,1.92,1.92,0,0,0,1.641.813A2.108,2.108,0,0,0,91.887,36.7V32.813a2.125,2.125,0,0,0-1.992-1.2,1.929,1.929,0,0,0-1.656.82A4.128,4.128,0,0,0,87.645,34.867Zm11.438,4.289a3.693,3.693,0,0,1-2.8-1.129,4.19,4.19,0,0,1-1.078-3.02v-.266a5.073,5.073,0,0,1,.48-2.246,3.748,3.748,0,0,1,1.344-1.547,3.378,3.378,0,0,1,1.871-.559,3.166,3.166,0,0,1,2.563,1.086,4.7,4.7,0,0,1,.914,3.109v.6H96.652a3,3,0,0,0,.73,2.02,2.3,2.3,0,0,0,1.777.77,2.517,2.517,0,0,0,1.3-.312,3.259,3.259,0,0,0,.93-.828l.883.688A3.55,3.55,0,0,1,99.082,39.156Zm-.18-7.578a1.928,1.928,0,0,0-1.469.637A3.1,3.1,0,0,0,96.7,34h4.234v-.109a2.753,2.753,0,0,0-.594-1.707A1.815,1.815,0,0,0,98.9,31.578ZM105.621,39h-1.445V27h1.445ZM39.84,63.156a3.693,3.693,0,0,1-2.8-1.129,4.19,4.19,0,0,1-1.078-3.02v-.266a5.073,5.073,0,0,1,.48-2.246,3.748,3.748,0,0,1,1.344-1.547,3.378,3.378,0,0,1,1.871-.559,3.166,3.166,0,0,1,2.563,1.086,4.7,4.7,0,0,1,.914,3.109v.6H37.41a3,3,0,0,0,.73,2.02,2.3,2.3,0,0,0,1.777.77,2.517,2.517,0,0,0,1.3-.312,3.258,3.258,0,0,0,.93-.828l.883.688A3.55,3.55,0,0,1,39.84,63.156Zm-.18-7.578a1.928,1.928,0,0,0-1.469.637A3.1,3.1,0,0,0,37.457,58h4.234v-.109a2.753,2.753,0,0,0-.594-1.707A1.815,1.815,0,0,0,39.66,55.578ZM47.5,61.039l2.094-6.492h1.477L48.035,63h-1.1l-3.062-8.453h1.477Zm8.367,2.117a3.693,3.693,0,0,1-2.8-1.129,4.19,4.19,0,0,1-1.078-3.02v-.266a5.073,5.073,0,0,1,.48-2.246,3.748,3.748,0,0,1,1.344-1.547,3.378,3.378,0,0,1,1.871-.559,3.166,3.166,0,0,1,2.563,1.086,4.7,4.7,0,0,1,.914,3.109v.6H53.434a3,3,0,0,0,.73,2.02,2.3,2.3,0,0,0,1.777.77,2.517,2.517,0,0,0,1.3-.312,3.258,3.258,0,0,0,.93-.828l.883.688A3.55,3.55,0,0,1,55.863,63.156Zm-.18-7.578a1.928,1.928,0,0,0-1.469.637A3.1,3.1,0,0,0,53.48,58h4.234v-.109a2.753,2.753,0,0,0-.594-1.707A1.815,1.815,0,0,0,55.684,55.578ZM62.2,54.547l.047,1.063a3.08,3.08,0,0,1,2.531-1.219q2.68,0,2.7,3.023V63H66.035V57.406a1.946,1.946,0,0,0-.418-1.352,1.675,1.675,0,0,0-1.277-.437,2.086,2.086,0,0,0-1.234.375,2.546,2.546,0,0,0-.828.984V63H60.832V54.547ZM71.621,52.5v2.047H73.2v1.117H71.621v5.249a1.173,1.173,0,0,0,.211.763.888.888,0,0,0,.719.254,3.5,3.5,0,0,0,.688-.094V63a4.215,4.215,0,0,1-1.109.155,1.8,1.8,0,0,1-1.461-.586,2.517,2.517,0,0,1-.492-1.664V55.664H68.637V54.547h1.539V52.5Zm2.727,6.2a4.993,4.993,0,0,1,.488-2.234A3.643,3.643,0,0,1,76.2,54.93a3.7,3.7,0,0,1,1.988-.539,3.565,3.565,0,0,1,2.793,1.2,4.6,4.6,0,0,1,1.066,3.18v.1a5.036,5.036,0,0,1-.473,2.215,3.589,3.589,0,0,1-1.352,1.527,3.743,3.743,0,0,1-2.02.547,3.556,3.556,0,0,1-2.785-1.2A4.575,4.575,0,0,1,74.348,58.8Zm1.453.172a3.616,3.616,0,0,0,.652,2.258,2.211,2.211,0,0,0,3.5-.012A3.955,3.955,0,0,0,80.6,58.7a3.61,3.61,0,0,0-.66-2.254,2.1,2.1,0,0,0-1.754-.863,2.075,2.075,0,0,0-1.727.852A3.925,3.925,0,0,0,75.8,58.867Z" transform="translate(-8735.896 7216.696)" fill="#12263f"/>
    <path id="Trazado_609408" data-name="Trazado 609408" d="M6.555,10.547V15h-1.5V3.625h4.2a4.215,4.215,0,0,1,2.926.953A3.231,3.231,0,0,1,13.234,7.1,3.189,3.189,0,0,1,12.2,9.652a4.4,4.4,0,0,1-2.965.895Zm0-1.227h2.7a2.7,2.7,0,0,0,1.844-.567,2.075,2.075,0,0,0,.641-1.64,2.143,2.143,0,0,0-.641-1.628,2.525,2.525,0,0,0-1.758-.634H6.555Zm13.586,4.844a3.07,3.07,0,0,1-2.477.992,2.628,2.628,0,0,1-2.059-.785,3.4,3.4,0,0,1-.715-2.324v-5.5h1.445v5.461q0,1.922,1.563,1.922A2.163,2.163,0,0,0,20.1,12.7V6.547h1.445V15H20.172Zm7.109.992a3.693,3.693,0,0,1-2.8-1.129,4.19,4.19,0,0,1-1.078-3.02v-.266a5.073,5.073,0,0,1,.48-2.246A3.748,3.748,0,0,1,25.2,6.949a3.378,3.378,0,0,1,1.871-.559,3.166,3.166,0,0,1,2.563,1.086,4.7,4.7,0,0,1,.914,3.109v.6H24.82a3,3,0,0,0,.73,2.02,2.3,2.3,0,0,0,1.777.77,2.517,2.517,0,0,0,1.3-.312,3.259,3.259,0,0,0,.93-.828l.883.688A3.55,3.55,0,0,1,27.25,15.156Zm-.18-7.578a1.928,1.928,0,0,0-1.469.637A3.1,3.1,0,0,0,24.867,10H29.1V9.891a2.753,2.753,0,0,0-.594-1.707A1.815,1.815,0,0,0,27.07,7.578Zm10.07,5.18a1.064,1.064,0,0,0-.441-.91,4.249,4.249,0,0,0-1.539-.559,7.277,7.277,0,0,1-1.742-.562,2.479,2.479,0,0,1-.953-.781,1.869,1.869,0,0,1-.309-1.078,2.193,2.193,0,0,1,.879-1.758,3.432,3.432,0,0,1,2.246-.719,3.532,3.532,0,0,1,2.332.742,2.357,2.357,0,0,1,.895,1.9H37.055a1.3,1.3,0,0,0-.5-1.023,1.888,1.888,0,0,0-1.27-.43,1.976,1.976,0,0,0-1.234.344,1.082,1.082,0,0,0-.445.9.877.877,0,0,0,.414.789,5.1,5.1,0,0,0,1.5.508,7.8,7.8,0,0,1,1.754.578,2.558,2.558,0,0,1,1,.809,1.988,1.988,0,0,1,.324,1.152,2.163,2.163,0,0,1-.906,1.816,3.8,3.8,0,0,1-2.352.684,4.257,4.257,0,0,1-1.8-.359,2.922,2.922,0,0,1-1.223-1,2.42,2.42,0,0,1-.441-1.395h1.445a1.5,1.5,0,0,0,.582,1.152,2.258,2.258,0,0,0,1.434.426,2.331,2.331,0,0,0,1.316-.332A1.02,1.02,0,0,0,37.141,12.758ZM42.43,4.5V6.547h1.578V7.664H42.43v5.249a1.173,1.173,0,0,0,.211.763.888.888,0,0,0,.719.254,3.5,3.5,0,0,0,.688-.094V15a4.215,4.215,0,0,1-1.109.155,1.8,1.8,0,0,1-1.461-.586,2.517,2.517,0,0,1-.492-1.664V7.664H39.445V6.547h1.539V4.5Zm2.727,6.2a4.993,4.993,0,0,1,.488-2.234A3.643,3.643,0,0,1,47,6.93a3.7,3.7,0,0,1,1.988-.539,3.565,3.565,0,0,1,2.793,1.2,4.6,4.6,0,0,1,1.066,3.18v.1a5.036,5.036,0,0,1-.473,2.215,3.589,3.589,0,0,1-1.352,1.527,3.743,3.743,0,0,1-2.02.547,3.556,3.556,0,0,1-2.785-1.2A4.575,4.575,0,0,1,45.156,10.8Zm1.453.172a3.616,3.616,0,0,0,.652,2.258,2.211,2.211,0,0,0,3.5-.012,3.955,3.955,0,0,0,.648-2.418,3.61,3.61,0,0,0-.66-2.254,2.1,2.1,0,0,0-1.754-.863,2.075,2.075,0,0,0-1.727.852A3.925,3.925,0,0,0,46.609,10.867ZM58.273,10.7A4.952,4.952,0,0,1,59.2,7.574a3.137,3.137,0,0,1,4.766-.168V3h1.445V15H64.078l-.07-.906a2.943,2.943,0,0,1-2.414,1.063,2.887,2.887,0,0,1-2.395-1.2,5.008,5.008,0,0,1-.926-3.141Zm1.445.164a3.749,3.749,0,0,0,.594,2.25,1.92,1.92,0,0,0,1.641.813A2.108,2.108,0,0,0,63.961,12.7V8.813a2.125,2.125,0,0,0-1.992-1.2,1.929,1.929,0,0,0-1.656.82A4.128,4.128,0,0,0,59.719,10.867Zm11.438,4.289a3.693,3.693,0,0,1-2.8-1.129,4.19,4.19,0,0,1-1.078-3.02v-.266a5.073,5.073,0,0,1,.48-2.246,3.748,3.748,0,0,1,1.344-1.547,3.378,3.378,0,0,1,1.871-.559,3.166,3.166,0,0,1,2.563,1.086,4.7,4.7,0,0,1,.914,3.109v.6H68.727a3,3,0,0,0,.73,2.02,2.3,2.3,0,0,0,1.777.77,2.517,2.517,0,0,0,1.3-.312,3.259,3.259,0,0,0,.93-.828l.883.688A3.55,3.55,0,0,1,71.156,15.156Zm-.18-7.578a1.928,1.928,0,0,0-1.469.637A3.1,3.1,0,0,0,68.773,10h4.234V9.891a2.753,2.753,0,0,0-.594-1.707A1.815,1.815,0,0,0,70.977,7.578ZM82.047,4.5V6.547h1.578V7.664H82.047v5.249a1.173,1.173,0,0,0,.211.763.888.888,0,0,0,.719.254,3.5,3.5,0,0,0,.688-.094V15a4.215,4.215,0,0,1-1.109.155,1.8,1.8,0,0,1-1.461-.586,2.517,2.517,0,0,1-.492-1.664V7.664H79.063V6.547H80.6V4.5ZM86.883,15H85.438V6.547h1.445ZM85.32,4.3a.863.863,0,0,1,.215-.594.807.807,0,0,1,.637-.242.819.819,0,0,1,.641.242.854.854,0,0,1,.219.594.826.826,0,0,1-.219.586.834.834,0,0,1-.641.234.821.821,0,0,1-.637-.234A.834.834,0,0,1,85.32,4.3Zm5.242,2.242.047,1.063a3.08,3.08,0,0,1,2.531-1.219q2.68,0,2.7,3.023V15H94.4V9.406a1.946,1.946,0,0,0-.418-1.352A1.675,1.675,0,0,0,92.7,7.617a2.086,2.086,0,0,0-1.234.375,2.546,2.546,0,0,0-.828.984V15H89.2V6.547ZM99.984,4.5V6.547h1.578V7.664H99.984v5.249a1.173,1.173,0,0,0,.211.763.888.888,0,0,0,.719.254,3.5,3.5,0,0,0,.688-.094V15a4.215,4.215,0,0,1-1.109.155,1.8,1.8,0,0,1-1.461-.586,2.517,2.517,0,0,1-.492-1.664V7.664H97V6.547h1.539V4.5Zm2.727,6.2a4.993,4.993,0,0,1,.488-2.234,3.643,3.643,0,0,1,1.359-1.531,3.7,3.7,0,0,1,1.988-.539,3.565,3.565,0,0,1,2.793,1.2,4.6,4.6,0,0,1,1.066,3.18v.1a5.036,5.036,0,0,1-.473,2.215,3.589,3.589,0,0,1-1.352,1.527,3.743,3.743,0,0,1-2.02.547,3.556,3.556,0,0,1-2.785-1.2,4.575,4.575,0,0,1-1.066-3.164Zm1.453.172a3.616,3.616,0,0,0,.652,2.258,2.211,2.211,0,0,0,3.5-.012,3.955,3.955,0,0,0,.648-2.418,3.61,3.61,0,0,0-.66-2.254,2.1,2.1,0,0,0-1.754-.863,2.075,2.075,0,0,0-1.727.852A3.925,3.925,0,0,0,104.164,10.867Zm8.008,6.4-.82-.562a3.77,3.77,0,0,0,.766-2.109v-1.3h1.414v1.133A3.559,3.559,0,0,1,113.145,16,3.7,3.7,0,0,1,112.172,17.266ZM29.313,39a3.036,3.036,0,0,1-.2-.891A3.225,3.225,0,0,1,26.7,39.156a2.984,2.984,0,0,1-2.051-.707,2.287,2.287,0,0,1-.8-1.793,2.39,2.39,0,0,1,1-2.051,4.733,4.733,0,0,1,2.824-.73h1.406v-.664A1.623,1.623,0,0,0,28.633,32a1.821,1.821,0,0,0-1.336-.449,2.108,2.108,0,0,0-1.3.391,1.151,1.151,0,0,0-.523.945H24.023a2,2,0,0,1,.449-1.223,3.066,3.066,0,0,1,1.219-.934,4.1,4.1,0,0,1,1.691-.344,3.342,3.342,0,0,1,2.289.73,2.635,2.635,0,0,1,.859,2.012v3.891a4.757,4.757,0,0,0,.3,1.852V39Zm-2.4-1.1a2.54,2.54,0,0,0,1.289-.352,2.127,2.127,0,0,0,.883-.914V34.9H27.953q-2.656,0-2.656,1.555a1.316,1.316,0,0,0,.453,1.063A1.742,1.742,0,0,0,26.914,37.9Zm9.969-6.055a4.331,4.331,0,0,0-.711-.055A1.9,1.9,0,0,0,34.242,33v6H32.8V30.547H34.2l.023.977a2.251,2.251,0,0,1,2.016-1.133,1.477,1.477,0,0,1,.641.109Zm.789,2.852a4.993,4.993,0,0,1,.488-2.234A3.643,3.643,0,0,1,39.52,30.93a3.7,3.7,0,0,1,1.988-.539,3.565,3.565,0,0,1,2.793,1.2,4.6,4.6,0,0,1,1.066,3.18v.1a5.036,5.036,0,0,1-.473,2.215,3.589,3.589,0,0,1-1.352,1.527,3.743,3.743,0,0,1-2.02.547,3.556,3.556,0,0,1-2.785-1.2A4.575,4.575,0,0,1,37.672,34.8Zm1.453.172a3.616,3.616,0,0,0,.652,2.258,2.211,2.211,0,0,0,3.5-.012,3.955,3.955,0,0,0,.648-2.418,3.61,3.61,0,0,0-.66-2.254,2.1,2.1,0,0,0-1.754-.863,2.075,2.075,0,0,0-1.727.852A3.925,3.925,0,0,0,39.125,34.867Zm9.414-4.32.039.938a3.122,3.122,0,0,1,2.508-1.094A2.417,2.417,0,0,1,53.5,31.75a3.2,3.2,0,0,1,1.1-.984,3.242,3.242,0,0,1,1.6-.375q2.781,0,2.828,2.945V39H57.578V33.422a1.941,1.941,0,0,0-.414-1.355,1.823,1.823,0,0,0-1.391-.449,1.916,1.916,0,0,0-1.336.48,1.949,1.949,0,0,0-.617,1.293V39H52.367V33.461a1.613,1.613,0,0,0-1.8-1.844,1.934,1.934,0,0,0-1.945,1.211V39H47.172V30.547ZM66.422,39a3.036,3.036,0,0,1-.2-.891,3.225,3.225,0,0,1-2.406,1.047,2.984,2.984,0,0,1-2.051-.707,2.287,2.287,0,0,1-.8-1.793,2.39,2.39,0,0,1,1-2.051,4.733,4.733,0,0,1,2.824-.73H66.2v-.664A1.623,1.623,0,0,0,65.742,32a1.821,1.821,0,0,0-1.336-.449,2.107,2.107,0,0,0-1.3.391,1.151,1.151,0,0,0-.523.945H61.133a2,2,0,0,1,.449-1.223,3.066,3.066,0,0,1,1.219-.934,4.1,4.1,0,0,1,1.691-.344,3.342,3.342,0,0,1,2.289.73,2.635,2.635,0,0,1,.859,2.012v3.891a4.757,4.757,0,0,0,.3,1.852V39Zm-2.4-1.1a2.54,2.54,0,0,0,1.289-.352,2.127,2.127,0,0,0,.883-.914V34.9H65.063q-2.656,0-2.656,1.555a1.316,1.316,0,0,0,.453,1.063A1.742,1.742,0,0,0,64.023,37.9ZM65.359,27h1.75l-2.094,2.3-1.164,0Zm6.508,1.5v2.047h1.578v1.117H71.867v5.249a1.173,1.173,0,0,0,.211.763.888.888,0,0,0,.719.254,3.5,3.5,0,0,0,.688-.094V39a4.215,4.215,0,0,1-1.109.155,1.8,1.8,0,0,1-1.461-.586,2.517,2.517,0,0,1-.492-1.664V31.664H68.883V30.547h1.539V28.5ZM76.7,39H75.258V30.547H76.7ZM75.141,28.3a.863.863,0,0,1,.215-.594.807.807,0,0,1,.637-.242.819.819,0,0,1,.641.242.854.854,0,0,1,.219.594.826.826,0,0,1-.219.586.834.834,0,0,1-.641.234.821.821,0,0,1-.637-.234A.834.834,0,0,1,75.141,28.3Zm7.266,9.672a2.082,2.082,0,0,0,1.352-.469,1.649,1.649,0,0,0,.641-1.172h1.367a2.621,2.621,0,0,1-.5,1.383,3.293,3.293,0,0,1-1.23,1.047,3.55,3.55,0,0,1-1.629.391A3.482,3.482,0,0,1,79.66,38a4.59,4.59,0,0,1-1.02-3.152v-.242a5.089,5.089,0,0,1,.453-2.2,3.451,3.451,0,0,1,1.3-1.492,3.7,3.7,0,0,1,2-.531,3.39,3.39,0,0,1,2.363.852,3.043,3.043,0,0,1,1,2.211H84.4a1.992,1.992,0,0,0-.621-1.348,1.932,1.932,0,0,0-1.379-.527,2.023,2.023,0,0,0-1.707.793,3.724,3.724,0,0,0-.605,2.293v.273a3.65,3.65,0,0,0,.6,2.25A2.033,2.033,0,0,0,82.406,37.977ZM92.609,39a3.036,3.036,0,0,1-.2-.891A3.225,3.225,0,0,1,90,39.156a2.984,2.984,0,0,1-2.051-.707,2.288,2.288,0,0,1-.8-1.793,2.39,2.39,0,0,1,1-2.051,4.733,4.733,0,0,1,2.824-.73h1.406v-.664A1.623,1.623,0,0,0,91.93,32a1.821,1.821,0,0,0-1.336-.449,2.108,2.108,0,0,0-1.3.391,1.151,1.151,0,0,0-.523.945H87.32a2,2,0,0,1,.449-1.223,3.066,3.066,0,0,1,1.219-.934,4.1,4.1,0,0,1,1.691-.344,3.342,3.342,0,0,1,2.289.73,2.635,2.635,0,0,1,.859,2.012v3.891a4.757,4.757,0,0,0,.3,1.852V39Zm-2.4-1.1a2.54,2.54,0,0,0,1.289-.352,2.127,2.127,0,0,0,.883-.914V34.9H91.25q-2.656,0-2.656,1.555a1.316,1.316,0,0,0,.453,1.063A1.742,1.742,0,0,0,90.211,37.9ZM32.3,58.7a4.968,4.968,0,0,1,.914-3.145,3.151,3.151,0,0,1,4.836-.074l.07-.937h1.32V62.8a3.439,3.439,0,0,1-.973,2.586,3.589,3.589,0,0,1-2.613.945,4.348,4.348,0,0,1-1.789-.391,3.08,3.08,0,0,1-1.336-1.07l.75-.867a2.826,2.826,0,0,0,2.273,1.148,2.214,2.214,0,0,0,1.645-.594,2.269,2.269,0,0,0,.59-1.672v-.727a2.971,2.971,0,0,1-2.367,1,2.887,2.887,0,0,1-2.4-1.2A5.224,5.224,0,0,1,32.3,58.7Zm1.453.164a3.79,3.79,0,0,0,.586,2.246,1.9,1.9,0,0,0,1.641.816,2.117,2.117,0,0,0,2.008-1.242V56.828a2.142,2.142,0,0,0-1.992-1.211,1.921,1.921,0,0,0-1.648.82A4.128,4.128,0,0,0,33.75,58.867ZM45.7,55.844a4.331,4.331,0,0,0-.711-.055A1.9,1.9,0,0,0,43.063,57v6H41.617V54.547h1.406l.023.977a2.251,2.251,0,0,1,2.016-1.133,1.477,1.477,0,0,1,.641.109ZM51.938,63a3.036,3.036,0,0,1-.2-.891,3.225,3.225,0,0,1-2.406,1.047,2.984,2.984,0,0,1-2.051-.707,2.287,2.287,0,0,1-.8-1.793,2.39,2.39,0,0,1,1-2.051,4.733,4.733,0,0,1,2.824-.73h1.406v-.664A1.623,1.623,0,0,0,51.258,56a1.821,1.821,0,0,0-1.336-.449,2.107,2.107,0,0,0-1.3.391,1.151,1.151,0,0,0-.523.945H46.648a2,2,0,0,1,.449-1.223,3.066,3.066,0,0,1,1.219-.934,4.1,4.1,0,0,1,1.691-.344,3.342,3.342,0,0,1,2.289.73,2.635,2.635,0,0,1,.859,2.012v3.891a4.757,4.757,0,0,0,.3,1.852V63Zm-2.4-1.1a2.54,2.54,0,0,0,1.289-.352,2.127,2.127,0,0,0,.883-.914V58.9H50.578q-2.656,0-2.656,1.555a1.316,1.316,0,0,0,.453,1.063A1.742,1.742,0,0,0,49.539,61.9Zm7.844-9.4v2.047h1.578v1.117H57.383v5.249a1.173,1.173,0,0,0,.211.763.888.888,0,0,0,.719.254A3.5,3.5,0,0,0,59,61.836V63a4.215,4.215,0,0,1-1.109.155,1.8,1.8,0,0,1-1.461-.586,2.517,2.517,0,0,1-.492-1.664V55.664H54.4V54.547h1.539V52.5Zm8.484,9.664a3.07,3.07,0,0,1-2.477.992,2.628,2.628,0,0,1-2.059-.785,3.4,3.4,0,0,1-.715-2.324v-5.5h1.445v5.461q0,1.922,1.563,1.922a2.163,2.163,0,0,0,2.2-1.234V54.547h1.445V63H65.9ZM71.039,63H69.594V54.547h1.445ZM69.477,52.3a.863.863,0,0,1,.215-.594.807.807,0,0,1,.637-.242.819.819,0,0,1,.641.242.854.854,0,0,1,.219.594.826.826,0,0,1-.219.586.834.834,0,0,1-.641.234.821.821,0,0,1-.637-.234A.834.834,0,0,1,69.477,52.3Zm5.836.2v2.047h1.578v1.117H75.313v5.249a1.173,1.173,0,0,0,.211.763.888.888,0,0,0,.719.254,3.5,3.5,0,0,0,.688-.094V63a4.215,4.215,0,0,1-1.109.155,1.8,1.8,0,0,1-1.461-.586,2.517,2.517,0,0,1-.492-1.664V55.664H72.328V54.547h1.539V52.5Zm2.727,6.2a4.993,4.993,0,0,1,.488-2.234,3.643,3.643,0,0,1,1.359-1.531,3.7,3.7,0,0,1,1.988-.539,3.565,3.565,0,0,1,2.793,1.2,4.6,4.6,0,0,1,1.066,3.18v.1a5.036,5.036,0,0,1-.473,2.215,3.589,3.589,0,0,1-1.352,1.527,3.743,3.743,0,0,1-2.02.547,3.556,3.556,0,0,1-2.785-1.2A4.575,4.575,0,0,1,78.039,58.8Zm1.453.172a3.616,3.616,0,0,0,.652,2.258,2.211,2.211,0,0,0,3.5-.012,3.955,3.955,0,0,0,.648-2.418,3.61,3.61,0,0,0-.66-2.254,2.1,2.1,0,0,0-1.754-.863,2.075,2.075,0,0,0-1.727.852A3.925,3.925,0,0,0,79.492,58.867Z" transform="translate(-8517.896 7217.88)" fill="#12263f"/>
  </g>
</svg>
