<svg xmlns="http://www.w3.org/2000/svg" xmlns:xlink="http://www.w3.org/1999/xlink" width="412.402" height="327.144" viewBox="0 0 412.402 327.144">
  <defs>
    <clipPath id="clip-path">
      <path id="Rect치ngulo_275445" data-name="Rect치ngulo 275445" d="M17.3,0H382.7A17.3,17.3,0,0,1,400,17.3V168.759a17.3,17.3,0,0,1-17.3,17.3H17.3A17.3,17.3,0,0,1,0,168.76V17.3A17.3,17.3,0,0,1,17.3,0Z" fill="#3d672f"/>
    </clipPath>
    <clipPath id="clip-path-2">
      <rect id="Rect치ngulo_275455" data-name="Rect치ngulo 275455" width="262.547" height="257.959" fill="none"/>
    </clipPath>
    <filter id="Trazado_609234" x="0" y="0" width="412.402" height="288.508" filterUnits="userSpaceOnUse">
      <feOffset dy="3" input="SourceAlpha"/>
      <feGaussianBlur stdDeviation="8" result="blur"/>
      <feFlood flood-opacity="0.161"/>
      <feComposite operator="in" in2="blur"/>
      <feComposite in="SourceGraphic"/>
    </filter>
    <filter id="Trazado_609233" x="15.184" y="271.489" width="69.086" height="55.654" filterUnits="userSpaceOnUse">
      <feOffset dy="3" input="SourceAlpha"/>
      <feGaussianBlur stdDeviation="3" result="blur-2"/>
      <feFlood flood-opacity="0.161"/>
      <feComposite operator="in" in2="blur-2"/>
      <feComposite in="SourceGraphic"/>
    </filter>
  </defs>
  <g id="Grupo_870573" data-name="Grupo 870573" transform="translate(-594 -1265.158)">
    <g id="Grupo_753158" data-name="Grupo 753158" transform="translate(600 1322.893)">
      <g id="Grupo_731713" data-name="Grupo 731713" clip-path="url(#clip-path)">
        <path id="Trazado_496670" data-name="Trazado 496670" d="M0,0H400V186.061H0Z" transform="translate(0 0)" fill="#3d672f"/>
      </g>
    </g>
    <path id="Trazado_609231" data-name="Trazado 609231" d="M0,0H262.547V257.959H0Z" transform="translate(600 1322.893)" fill="none"/>
    <path id="Trazado_609232" data-name="Trazado 609232" d="M0,0H262.547V257.959H0Z" transform="translate(603.115 1322.893)" fill="none"/>
    <path id="Trazado_609230" data-name="Trazado 609230" d="M11.13,6.2l1.222,8.877L16.64,6.2h4.008L18.433,19H15.41l.545-3.138,1.3-5.783L12.773,19h-2L9.328,9.745l-.809,6.416L8.018,19H5.012L7.227,6.2ZM23.61,19H20.6L22.828,6.2h3Zm12.867-4.359a4.614,4.614,0,0,1-.883,2.391,5,5,0,0,1-2.021,1.608,6.259,6.259,0,0,1-2.711.536,4.215,4.215,0,0,1-3.155-1.292A5.193,5.193,0,0,1,26.449,14.5a11.02,11.02,0,0,1,.312-3.1,8.2,8.2,0,0,1,1.274-2.922,5.855,5.855,0,0,1,2.083-1.863,5.407,5.407,0,0,1,2.624-.593,4.577,4.577,0,0,1,3.309,1.257,4.92,4.92,0,0,1,1.323,3.366l-3-.009a2.465,2.465,0,0,0-.422-1.67,1.852,1.852,0,0,0-1.389-.536q-2.373-.079-2.892,3.691a20.283,20.283,0,0,0-.237,2.435q-.044,2.162,1.6,2.224a2.348,2.348,0,0,0,1.7-.523,2.615,2.615,0,0,0,.809-1.578Zm9.483-1.072h-4.7l-.536,3.059h5.563L45.873,19H37.3L39.518,6.2h8.587l-.413,2.382H42.12l-.475,2.7h4.711Zm12.208-8.7.448,1.494a8.35,8.35,0,0,0-2.654,3.507,19.043,19.043,0,0,0-1.248,5.871l-.044.861q-.132,3.595,1.547,4.9l-.633,1.459a4.8,4.8,0,0,1-1.793-1.586,7.037,7.037,0,0,1-1.055-2.562,12.928,12.928,0,0,1-.272-3.146,17.29,17.29,0,0,1,.809-4.72,12.029,12.029,0,0,1,1.978-3.858A6.848,6.848,0,0,1,58.169,4.867Zm5.8,1.336,1.222,8.877L69.48,6.2h4.008L71.273,19H68.25l.545-3.138,1.3-5.783L65.613,19h-2l-1.45-9.255-.809,6.416L60.858,19H57.852L60.067,6.2ZM77.838,19.176a4.421,4.421,0,0,1-2.272-.6,3.793,3.793,0,0,1-1.507-1.652,4.44,4.44,0,0,1-.4-2.333l.026-.246a5.829,5.829,0,0,1,1.63-3.713,4.51,4.51,0,0,1,3.415-1.314,3.678,3.678,0,0,1,2.092.621A3.468,3.468,0,0,1,82.092,11.6a5.1,5.1,0,0,1,.264,2.381l-.167,1.206h-5.66a1.854,1.854,0,0,0,.422,1.213,1.549,1.549,0,0,0,1.178.492,2.993,2.993,0,0,0,2.259-.967l1.213,1.6a3.578,3.578,0,0,1-1.5,1.2,5.263,5.263,0,0,1-2.1.451Zm.7-7.576a1.487,1.487,0,0,0-1.068.385,3.229,3.229,0,0,0-.787,1.347h2.892l.053-.254a1.929,1.929,0,0,0,.018-.577A1.017,1.017,0,0,0,78.542,11.6Zm8.895,7.576a4.421,4.421,0,0,1-2.272-.6,3.793,3.793,0,0,1-1.507-1.652,4.44,4.44,0,0,1-.4-2.333l.026-.246a5.829,5.829,0,0,1,1.63-3.713,4.51,4.51,0,0,1,3.415-1.314,3.678,3.678,0,0,1,2.092.621A3.468,3.468,0,0,1,91.69,11.6a5.1,5.1,0,0,1,.264,2.381l-.167,1.206h-5.66a1.854,1.854,0,0,0,.422,1.213,1.549,1.549,0,0,0,1.178.492,2.993,2.993,0,0,0,2.259-.967l1.213,1.6a3.578,3.578,0,0,1-1.5,1.2,5.263,5.263,0,0,1-2.1.451Zm.7-7.576a1.487,1.487,0,0,0-1.068.385,3.229,3.229,0,0,0-.787,1.347h2.892l.053-.254a1.929,1.929,0,0,0,.018-.577A1.017,1.017,0,0,0,88.139,11.6Zm9.589-4.474L97.315,9.49h1.521l-.36,2.057H96.955l-.738,4.368a1.164,1.164,0,0,0,.057.677q.119.229.593.246a6.873,6.873,0,0,0,.756-.044l-.211,2.145a4.673,4.673,0,0,1-1.556.22,2.563,2.563,0,0,1-2.013-.791,2.7,2.7,0,0,1-.545-2.1l.773-4.72H92.894l.352-2.057h1.178l.413-2.364ZM101.437,19h-2.9l1.652-9.51h2.9Zm-.993-11.909a1.341,1.341,0,0,1,.453-1.072,1.625,1.625,0,0,1,1.138-.431,1.678,1.678,0,0,1,1.129.387,1.318,1.318,0,0,1,.47,1.011,1.344,1.344,0,0,1-.448,1.077,1.63,1.63,0,0,1-1.143.426,1.7,1.7,0,0,1-1.121-.382A1.3,1.3,0,0,1,100.444,7.091Zm7.119,2.391-.2,1.143a3.38,3.38,0,0,1,2.751-1.318,2.27,2.27,0,0,1,1.964.98,4.1,4.1,0,0,1,.47,2.729l-1,5.985h-2.9l1.011-6.01a3.108,3.108,0,0,0,.018-.563q-.062-.836-.984-.836a1.807,1.807,0,0,0-1.4.678L106.1,19h-2.892l1.652-9.51Zm6.135,4.746a7.226,7.226,0,0,1,.787-2.593,4.564,4.564,0,0,1,1.551-1.753,3.735,3.735,0,0,1,2.109-.576,2.6,2.6,0,0,1,2.162,1.028l.308-.853,2.672.009-1.556,9.141a4.467,4.467,0,0,1-1.7,3.05,5.4,5.4,0,0,1-3.568,1.063,5.1,5.1,0,0,1-1.837-.378,3.957,3.957,0,0,1-1.521-1.09l1.371-1.705a2.489,2.489,0,0,0,1.986.993,2.324,2.324,0,0,0,2.443-2.048l.07-.29a2.973,2.973,0,0,1-2.171.949,2.932,2.932,0,0,1-1.608-.461,3.034,3.034,0,0,1-1.09-1.305,5.076,5.076,0,0,1-.448-1.9A8.253,8.253,0,0,1,113.7,14.228Zm2.856.94a2.306,2.306,0,0,0,.29,1.257.984.984,0,0,0,.844.466,1.933,1.933,0,0,0,1.485-.633l.747-4.034a1.281,1.281,0,0,0-1.178-.633,1.683,1.683,0,0,0-1.415.716,3.861,3.861,0,0,0-.721,1.929Q116.554,14.79,116.554,15.168ZM128.7,16.275q.114-.58-.9-.87l-.624-.158a4.806,4.806,0,0,1-2.241-1.134,2.244,2.244,0,0,1-.668-1.731,2.758,2.758,0,0,1,1.217-2.228,4.633,4.633,0,0,1,2.861-.839,4.292,4.292,0,0,1,2.72.853,2.781,2.781,0,0,1,1.059,2.25l-2.883-.009q.035-1.125-.993-1.125a1.417,1.417,0,0,0-.817.259,1.007,1.007,0,0,0-.448.69q-.149.712,1.257.976a7.3,7.3,0,0,1,1.89.672,2.822,2.822,0,0,1,1.02.945,2.35,2.35,0,0,1,.325,1.354,2.541,2.541,0,0,1-.562,1.538,3.642,3.642,0,0,1-1.551,1.081,5.557,5.557,0,0,1-2.2.378,4.469,4.469,0,0,1-1.912-.431,3.408,3.408,0,0,1-1.38-1.147,2.979,2.979,0,0,1-.514-1.666l2.689.018a1.111,1.111,0,0,0,1.266,1.248,1.661,1.661,0,0,0,.914-.242A1.045,1.045,0,0,0,128.7,16.275Zm4.245,6.161-1.45-.694.809-1.433a4.964,4.964,0,0,0,.571-1.494l.36-2.048h2.32l-.308,1.828A6,6,0,0,1,132.946,22.437Zm12-3.437h-3.006l2.224-12.8h3Zm6.3-9.519-.2,1.143a3.38,3.38,0,0,1,2.751-1.318,2.27,2.27,0,0,1,1.964.98,4.1,4.1,0,0,1,.47,2.729l-1,5.985h-2.9l1.011-6.01a3.108,3.108,0,0,0,.018-.563q-.062-.836-.984-.836a1.807,1.807,0,0,0-1.4.678L149.786,19h-2.892l1.652-9.51Zm10.046,7.409a1.244,1.244,0,0,0,.976-.345,1.717,1.717,0,0,0,.448-.938l2.707-.009a3.559,3.559,0,0,1-.62,1.872,3.745,3.745,0,0,1-1.529,1.279,4.521,4.521,0,0,1-2.061.426,3.57,3.57,0,0,1-2.927-1.367,4.726,4.726,0,0,1-.835-3.441l.026-.211a6.371,6.371,0,0,1,.809-2.553,4.626,4.626,0,0,1,1.709-1.718,4.433,4.433,0,0,1,2.369-.571,3.536,3.536,0,0,1,2.624,1.059,3.755,3.755,0,0,1,.927,2.764l-2.707-.009q.044-1.5-1.081-1.529-1.529-.053-1.758,2.567l-.079.893-.009.333Q160.28,16.864,161.291,16.891Zm9.483,2.285a4.421,4.421,0,0,1-2.272-.6,3.793,3.793,0,0,1-1.507-1.652,4.44,4.44,0,0,1-.4-2.333l.026-.246a5.829,5.829,0,0,1,1.63-3.713,4.51,4.51,0,0,1,3.415-1.314,3.678,3.678,0,0,1,2.092.621,3.468,3.468,0,0,1,1.274,1.664,5.1,5.1,0,0,1,.264,2.381l-.167,1.206h-5.66a1.854,1.854,0,0,0,.422,1.213,1.549,1.549,0,0,0,1.178.492,2.993,2.993,0,0,0,2.259-.967l1.213,1.6a3.578,3.578,0,0,1-1.5,1.2,5.263,5.263,0,0,1-2.1.451Zm.7-7.576a1.487,1.487,0,0,0-1.068.385,3.229,3.229,0,0,0-.787,1.347h2.892l.053-.254a1.929,1.929,0,0,0,.018-.577A1.017,1.017,0,0,0,171.477,11.6Zm8.455-2.118-.2,1.143a3.38,3.38,0,0,1,2.751-1.318,2.27,2.27,0,0,1,1.964.98,4.1,4.1,0,0,1,.47,2.729l-1,5.985h-2.9l1.011-6.01a3.108,3.108,0,0,0,.018-.563q-.062-.836-.984-.836a1.807,1.807,0,0,0-1.4.678L178.473,19h-2.892l1.652-9.51ZM191,7.126l-.413,2.364h1.521l-.36,2.057h-1.521l-.738,4.368a1.164,1.164,0,0,0,.057.677q.119.229.593.246a6.873,6.873,0,0,0,.756-.044l-.211,2.145a4.673,4.673,0,0,1-1.556.22,2.563,2.563,0,0,1-2.013-.791,2.7,2.7,0,0,1-.545-2.1l.773-4.72h-1.178l.352-2.057h1.178l.413-2.364ZM194.707,19h-2.9l1.652-9.51h2.9Zm-.993-11.909a1.341,1.341,0,0,1,.453-1.072,1.625,1.625,0,0,1,1.138-.431,1.678,1.678,0,0,1,1.129.387,1.318,1.318,0,0,1,.47,1.011,1.344,1.344,0,0,1-.448,1.077,1.63,1.63,0,0,1-1.143.426,1.7,1.7,0,0,1-1.121-.382A1.3,1.3,0,0,1,193.714,7.091Zm7.128,8.35,2.382-5.95h3.12l-4.5,9.51H198.9l-1.521-9.51h2.971Zm9.536,3.735a4.421,4.421,0,0,1-2.272-.6,3.793,3.793,0,0,1-1.507-1.652,4.44,4.44,0,0,1-.4-2.333l.026-.246a5.829,5.829,0,0,1,1.63-3.713,4.51,4.51,0,0,1,3.415-1.314,3.678,3.678,0,0,1,2.092.621,3.468,3.468,0,0,1,1.274,1.664,5.1,5.1,0,0,1,.264,2.381l-.167,1.206h-5.66a1.854,1.854,0,0,0,.422,1.213,1.549,1.549,0,0,0,1.178.492,2.993,2.993,0,0,0,2.259-.967l1.213,1.6a3.578,3.578,0,0,1-1.5,1.2,5.263,5.263,0,0,1-2.1.451Zm.7-7.576a1.487,1.487,0,0,0-1.068.385,3.229,3.229,0,0,0-.787,1.347h2.892l.053-.254a1.929,1.929,0,0,0,.018-.577A1.017,1.017,0,0,0,211.081,11.6Zm9.527,4.676q.114-.58-.9-.87l-.624-.158a4.806,4.806,0,0,1-2.241-1.134,2.244,2.244,0,0,1-.668-1.731,2.758,2.758,0,0,1,1.217-2.228,4.633,4.633,0,0,1,2.861-.839,4.292,4.292,0,0,1,2.72.853,2.781,2.781,0,0,1,1.059,2.25l-2.883-.009q.035-1.125-.993-1.125a1.417,1.417,0,0,0-.817.259,1.007,1.007,0,0,0-.448.69q-.149.712,1.257.976a7.3,7.3,0,0,1,1.89.672,2.821,2.821,0,0,1,1.02.945,2.35,2.35,0,0,1,.325,1.354,2.541,2.541,0,0,1-.562,1.538,3.642,3.642,0,0,1-1.551,1.081,5.557,5.557,0,0,1-2.2.378,4.469,4.469,0,0,1-1.912-.431,3.408,3.408,0,0,1-1.38-1.147,2.979,2.979,0,0,1-.514-1.666l2.689.018a1.111,1.111,0,0,0,1.266,1.248,1.661,1.661,0,0,0,.914-.242A1.045,1.045,0,0,0,220.608,16.275Zm4.245,6.161-1.45-.694.809-1.433a4.964,4.964,0,0,0,.571-1.494l.36-2.048h2.32l-.308,1.828A6,6,0,0,1,224.853,22.437ZM10.778,38.641a4.614,4.614,0,0,1-.883,2.391A5,5,0,0,1,7.873,42.64a6.259,6.259,0,0,1-2.711.536,4.215,4.215,0,0,1-3.155-1.292A5.193,5.193,0,0,1,.75,38.5a11.02,11.02,0,0,1,.312-3.1,8.2,8.2,0,0,1,1.274-2.922,5.855,5.855,0,0,1,2.083-1.863,5.407,5.407,0,0,1,2.624-.593,4.577,4.577,0,0,1,3.309,1.257,4.92,4.92,0,0,1,1.323,3.366l-3-.009a2.465,2.465,0,0,0-.422-1.67,1.852,1.852,0,0,0-1.389-.536q-2.373-.079-2.892,3.691a20.283,20.283,0,0,0-.237,2.435q-.044,2.162,1.6,2.224a2.348,2.348,0,0,0,1.7-.523,2.615,2.615,0,0,0,.809-1.578Zm6.24-5.326a3.994,3.994,0,0,1,2.206.637,3.59,3.59,0,0,1,1.367,1.727A5.33,5.33,0,0,1,20.9,38.14l-.018.193a5.636,5.636,0,0,1-1.626,3.533,4.575,4.575,0,0,1-3.41,1.31,3.977,3.977,0,0,1-2.188-.628,3.612,3.612,0,0,1-1.367-1.709,5.179,5.179,0,0,1-.321-2.443,5.863,5.863,0,0,1,1.6-3.727A4.547,4.547,0,0,1,17.018,33.314ZM14.865,38.4l-.026.518q-.123,1.957,1.2,1.992,1.705.053,1.978-2.764l.035-.8a2.155,2.155,0,0,0-.294-1.259,1.073,1.073,0,0,0-.918-.487,1.512,1.512,0,0,0-1.314.654A4.278,4.278,0,0,0,14.865,38.4Zm10.793-4.917-.2,1.143a3.38,3.38,0,0,1,2.751-1.318,2.27,2.27,0,0,1,1.964.98,4.1,4.1,0,0,1,.47,2.729l-1,5.985h-2.9l1.011-6.01a3.108,3.108,0,0,0,.018-.563q-.062-.836-.984-.836a1.807,1.807,0,0,0-1.4.678L24.2,43H21.307l1.652-9.51ZM31.933,43l1.292-7.453H31.889l.352-2.057,1.336-.009.114-.835A3.881,3.881,0,0,1,34.9,30.229a3.937,3.937,0,0,1,2.769-.932,8.524,8.524,0,0,1,1.433.194l-.22,2.2a2.8,2.8,0,0,0-.686-.105,1.8,1.8,0,0,0-1.059.293,1.311,1.311,0,0,0-.532.844l-.132.77h1.8l-.352,2.057h-1.8L34.834,43Zm10.512.176a4.421,4.421,0,0,1-2.272-.6,3.793,3.793,0,0,1-1.507-1.652,4.44,4.44,0,0,1-.4-2.333l.026-.246a5.829,5.829,0,0,1,1.63-3.713,4.51,4.51,0,0,1,3.415-1.314,3.678,3.678,0,0,1,2.092.621A3.468,3.468,0,0,1,46.7,35.6a5.1,5.1,0,0,1,.264,2.381L46.8,39.186h-5.66a1.854,1.854,0,0,0,.422,1.213,1.549,1.549,0,0,0,1.178.492,2.993,2.993,0,0,0,2.259-.967l1.213,1.6a3.578,3.578,0,0,1-1.5,1.2,5.263,5.263,0,0,1-2.1.451Zm.7-7.576a1.487,1.487,0,0,0-1.068.385,3.229,3.229,0,0,0-.787,1.347h2.892l.053-.254a1.929,1.929,0,0,0,.018-.577A1.017,1.017,0,0,0,43.148,35.6Zm11.03.571a8.273,8.273,0,0,0-.9-.088,2.233,2.233,0,0,0-1.986.9L50.223,43H47.332l1.652-9.51,2.7-.009-.22,1.248a2.64,2.64,0,0,1,2.2-1.441,4.144,4.144,0,0,1,.9.123Zm4.57,7a4.421,4.421,0,0,1-2.272-.6,3.793,3.793,0,0,1-1.507-1.652,4.44,4.44,0,0,1-.4-2.333l.026-.246a5.829,5.829,0,0,1,1.63-3.713,4.51,4.51,0,0,1,3.415-1.314,3.678,3.678,0,0,1,2.092.621A3.468,3.468,0,0,1,63,35.6a5.1,5.1,0,0,1,.264,2.381L63.1,39.186h-5.66a1.854,1.854,0,0,0,.422,1.213,1.549,1.549,0,0,0,1.178.492,2.993,2.993,0,0,0,2.259-.967l1.213,1.6a3.578,3.578,0,0,1-1.5,1.2,5.263,5.263,0,0,1-2.1.451Zm.7-7.576a1.487,1.487,0,0,0-1.068.385,3.229,3.229,0,0,0-.787,1.347h2.892l.053-.254a1.929,1.929,0,0,0,.018-.577A1.017,1.017,0,0,0,59.452,35.6Zm8.455-2.118-.2,1.143a3.38,3.38,0,0,1,2.751-1.318,2.27,2.27,0,0,1,1.964.98,4.1,4.1,0,0,1,.47,2.729l-1,5.985h-2.9L70,36.99a3.108,3.108,0,0,0,.018-.563q-.062-.836-.984-.836a1.807,1.807,0,0,0-1.4.678L66.448,43H63.556l1.652-9.51Zm10.046,7.409a1.244,1.244,0,0,0,.976-.345,1.717,1.717,0,0,0,.448-.938l2.707-.009a3.559,3.559,0,0,1-.62,1.872,3.745,3.745,0,0,1-1.529,1.279,4.521,4.521,0,0,1-2.061.426,3.57,3.57,0,0,1-2.927-1.367,4.726,4.726,0,0,1-.835-3.441l.026-.211a6.371,6.371,0,0,1,.809-2.553,4.626,4.626,0,0,1,1.709-1.718,4.433,4.433,0,0,1,2.369-.571,3.536,3.536,0,0,1,2.624,1.059,3.755,3.755,0,0,1,.927,2.764l-2.707-.009q.044-1.5-1.081-1.529-1.529-.053-1.758,2.567l-.079.893-.009.333Q76.942,40.864,77.953,40.891Zm9.483,2.285a4.421,4.421,0,0,1-2.272-.6,3.793,3.793,0,0,1-1.507-1.652,4.44,4.44,0,0,1-.4-2.333l.026-.246a5.829,5.829,0,0,1,1.63-3.713,4.51,4.51,0,0,1,3.415-1.314,3.678,3.678,0,0,1,2.092.621A3.468,3.468,0,0,1,91.69,35.6a5.1,5.1,0,0,1,.264,2.381l-.167,1.206h-5.66a1.854,1.854,0,0,0,.422,1.213,1.549,1.549,0,0,0,1.178.492,2.993,2.993,0,0,0,2.259-.967l1.213,1.6a3.578,3.578,0,0,1-1.5,1.2,5.263,5.263,0,0,1-2.1.451Zm.7-7.576a1.487,1.487,0,0,0-1.068.385,3.229,3.229,0,0,0-.787,1.347h2.892l.053-.254a1.929,1.929,0,0,0,.018-.577A1.017,1.017,0,0,0,88.139,35.6Zm9.527,4.676q.114-.58-.9-.87l-.624-.158A4.806,4.806,0,0,1,93.9,38.113a2.244,2.244,0,0,1-.668-1.731,2.758,2.758,0,0,1,1.217-2.228,4.633,4.633,0,0,1,2.861-.839,4.292,4.292,0,0,1,2.72.853,2.781,2.781,0,0,1,1.059,2.25l-2.883-.009q.035-1.125-.993-1.125a1.417,1.417,0,0,0-.817.259,1.007,1.007,0,0,0-.448.69q-.149.712,1.257.976a7.3,7.3,0,0,1,1.89.672,2.821,2.821,0,0,1,1.02.945,2.35,2.35,0,0,1,.325,1.354,2.541,2.541,0,0,1-.563,1.538A3.642,3.642,0,0,1,98.33,42.8a5.557,5.557,0,0,1-2.2.378,4.469,4.469,0,0,1-1.912-.431,3.408,3.408,0,0,1-1.38-1.147,2.979,2.979,0,0,1-.514-1.666l2.689.018A1.111,1.111,0,0,0,96.278,41.2a1.661,1.661,0,0,0,.914-.242A1.045,1.045,0,0,0,97.667,40.275ZM111.14,43a2.578,2.578,0,0,1-.123-.861,2.933,2.933,0,0,1-2.329,1.037,2.866,2.866,0,0,1-2.057-.826,2.483,2.483,0,0,1-.765-1.96,2.79,2.79,0,0,1,1.292-2.377,6.091,6.091,0,0,1,3.41-.831l.967.018.105-.536.035-.466a.755.755,0,0,0-.8-.826,1.111,1.111,0,0,0-1.169,1.046l-2.9.009a2.754,2.754,0,0,1,.624-1.666,3.7,3.7,0,0,1,1.578-1.09,5.512,5.512,0,0,1,2.123-.356,4.251,4.251,0,0,1,1.894.453,2.82,2.82,0,0,1,1.217,1.187,3.031,3.031,0,0,1,.308,1.753l-.712,4.474-.044.545a2.4,2.4,0,0,0,.167,1.107l-.009.167Zm-1.652-1.916a1.865,1.865,0,0,0,1.556-.782l.29-1.529-.747-.009a1.969,1.969,0,0,0-1.2.409,1.55,1.55,0,0,0-.589,1.068.778.778,0,0,0,.136.593A.7.7,0,0,0,109.488,41.084Zm9.932-7.6-.2,1.143a3.38,3.38,0,0,1,2.751-1.318,2.27,2.27,0,0,1,1.964.98,4.1,4.1,0,0,1,.47,2.729L123.4,43h-2.9l1.011-6.01a3.108,3.108,0,0,0,.018-.563q-.062-.836-.984-.836a1.807,1.807,0,0,0-1.4.678L117.961,43h-2.892l1.652-9.51Zm6.117,4.746a6.917,6.917,0,0,1,1.371-3.6,3.4,3.4,0,0,1,2.865-1.31,2.592,2.592,0,0,1,2.013,1.02l.923-4.834h2.9L133.271,43H130.7l.123-1.028a2.968,2.968,0,0,1-2.364,1.213,2.62,2.62,0,0,1-2.149-1.015,4.476,4.476,0,0,1-.831-2.676,8.231,8.231,0,0,1,.035-1.081Zm2.883.2a6.9,6.9,0,0,0-.062.984q0,1.459.984,1.485a1.844,1.844,0,0,0,1.521-.817l.65-3.647a1.171,1.171,0,0,0-1.16-.835,1.478,1.478,0,0,0-1.305.7A4.506,4.506,0,0,0,128.42,38.43Zm19.775-.861h-4.7l-.536,3.059h5.563L148.107,43h-8.569l2.215-12.8h8.587l-.413,2.382h-5.572l-.475,2.7h4.711Zm5.915-1.477,1.749-2.6h3.129l-3.243,4.764L157.485,43H154.6l-1-2.795L151.746,43h-3.164l3.41-5.01-1.661-4.5h2.909Zm8.411-1.564a3.107,3.107,0,0,1,2.452-1.222,2.472,2.472,0,0,1,2.123,1.046,3.981,3.981,0,0,1,.5,2.742L166.608,43h-2.892l.993-5.948a3.079,3.079,0,0,0,.018-.563.878.878,0,0,0-.967-.9,1.873,1.873,0,0,0-1.389.572L161.159,43h-2.892l2.347-13.5h2.892ZM171.328,43h-2.9l1.652-9.51h2.9Zm-.993-11.909a1.341,1.341,0,0,1,.453-1.072,1.625,1.625,0,0,1,1.138-.431,1.678,1.678,0,0,1,1.129.387,1.318,1.318,0,0,1,.47,1.011,1.344,1.344,0,0,1-.448,1.077,1.63,1.63,0,0,1-1.143.426,1.7,1.7,0,0,1-1.121-.382A1.3,1.3,0,0,1,170.335,31.091Zm12.217,7.172a6.891,6.891,0,0,1-1.362,3.639,3.409,3.409,0,0,1-2.865,1.283,2.522,2.522,0,0,1-2.162-1.178L175.8,43h-2.619l2.347-13.5h2.892l-.94,4.772a2.87,2.87,0,0,1,2.136-.958,2.679,2.679,0,0,1,2.18,1,4.351,4.351,0,0,1,.826,2.667,9.674,9.674,0,0,1-.044,1.1Zm-2.874-.171a9.1,9.1,0,0,0,.079-1.018q0-1.413-1.011-1.474a1.732,1.732,0,0,0-1.5.763l-.686,3.791a1.163,1.163,0,0,0,1.2.746q1.415.044,1.784-1.843l.123-.781ZM186.129,43h-2.9l1.652-9.51h2.9Zm-.993-11.909a1.341,1.341,0,0,1,.453-1.072,1.625,1.625,0,0,1,1.138-.431,1.678,1.678,0,0,1,1.129.387,1.318,1.318,0,0,1,.47,1.011,1.344,1.344,0,0,1-.448,1.077,1.63,1.63,0,0,1-1.143.426,1.7,1.7,0,0,1-1.121-.382A1.3,1.3,0,0,1,185.135,31.091Zm8.253.035-.413,2.364H194.5l-.36,2.057h-1.521l-.738,4.368a1.164,1.164,0,0,0,.057.677q.119.229.593.246a6.873,6.873,0,0,0,.756-.044l-.211,2.145a4.673,4.673,0,0,1-1.556.22,2.563,2.563,0,0,1-2.013-.791,2.7,2.7,0,0,1-.545-2.1l.773-4.72h-1.178l.352-2.057h1.178l.413-2.364ZM197.1,43h-2.9l1.652-9.51h2.9ZM196.1,31.091a1.341,1.341,0,0,1,.453-1.072,1.625,1.625,0,0,1,1.138-.431,1.678,1.678,0,0,1,1.129.387,1.318,1.318,0,0,1,.47,1.011,1.344,1.344,0,0,1-.448,1.077,1.63,1.63,0,0,1-1.143.426,1.7,1.7,0,0,1-1.121-.382A1.3,1.3,0,0,1,196.1,31.091Zm8.376,2.224a3.994,3.994,0,0,1,2.206.637,3.59,3.59,0,0,1,1.367,1.727,5.33,5.33,0,0,1,.312,2.461l-.018.193a5.636,5.636,0,0,1-1.626,3.533,4.575,4.575,0,0,1-3.41,1.31,3.977,3.977,0,0,1-2.188-.628,3.612,3.612,0,0,1-1.367-1.709,5.179,5.179,0,0,1-.321-2.443,5.863,5.863,0,0,1,1.6-3.727A4.547,4.547,0,0,1,204.48,33.314ZM202.327,38.4l-.026.518q-.123,1.957,1.2,1.992,1.705.053,1.978-2.764l.035-.8a2.155,2.155,0,0,0-.294-1.259,1.073,1.073,0,0,0-.918-.487,1.512,1.512,0,0,0-1.314.654A4.278,4.278,0,0,0,202.327,38.4Zm10.793-4.917-.2,1.143a3.38,3.38,0,0,1,2.751-1.318,2.27,2.27,0,0,1,1.964.98,4.1,4.1,0,0,1,.47,2.729L217.1,43h-2.9l1.011-6.01a3.108,3.108,0,0,0,.018-.563q-.062-.836-.984-.836a1.807,1.807,0,0,0-1.4.678L211.661,43h-2.892l1.652-9.51Zm11,6.794q.114-.58-.9-.87l-.624-.158a4.806,4.806,0,0,1-2.241-1.134,2.244,2.244,0,0,1-.668-1.731,2.758,2.758,0,0,1,1.217-2.228,4.633,4.633,0,0,1,2.861-.839,4.292,4.292,0,0,1,2.72.853,2.781,2.781,0,0,1,1.059,2.25l-2.883-.009q.035-1.125-.993-1.125a1.417,1.417,0,0,0-.817.259,1.007,1.007,0,0,0-.448.69q-.149.712,1.257.976a7.3,7.3,0,0,1,1.89.672,2.821,2.821,0,0,1,1.02.945,2.35,2.35,0,0,1,.325,1.354,2.541,2.541,0,0,1-.562,1.538,3.642,3.642,0,0,1-1.551,1.081,5.557,5.557,0,0,1-2.2.378,4.469,4.469,0,0,1-1.912-.431,3.408,3.408,0,0,1-1.38-1.147,2.979,2.979,0,0,1-.514-1.666l2.689.018a1.111,1.111,0,0,0,1.266,1.248,1.661,1.661,0,0,0,.914-.242A1.045,1.045,0,0,0,224.124,40.275ZM233.212,38a14.98,14.98,0,0,1-1.1,4,10.938,10.938,0,0,1-2.013,3.164,6.909,6.909,0,0,1-2.632,1.806l-.448-1.494a8.651,8.651,0,0,0,2.659-3.542,18.733,18.733,0,0,0,1.244-5.845l.053-.861q.088-3.612-1.556-4.887l.642-1.459a5.14,5.14,0,0,1,2.373,2.492,10.339,10.339,0,0,1,.914,4.232l.009.554a14.818,14.818,0,0,1-.114,1.591Z" transform="translate(684.41 1537.082)" fill="#12263f"/>
    <g transform="matrix(1, 0, 0, 1, 594, 1265.16)" filter="url(#Trazado_609234)">
      <path id="Trazado_609234-2" data-name="Trazado 609234" d="M178.939,238.568,154.492,206.98a5.13,5.13,0,0,1-.652-1.1H18a18,18,0,0,1-18-18V18A18,18,0,0,1,18,0H346.4a18,18,0,0,1,18,18V187.883a18,18,0,0,1-18,18H211.946a5.131,5.131,0,0,1-.652,1.1l-24.447,31.588a5,5,0,0,1-7.908,0Z" transform="translate(24 21)" fill="#fff"/>
    </g>
    <g transform="matrix(1, 0, 0, 1, 594, 1265.16)" filter="url(#Trazado_609233)">
      <path id="Trazado_609233-2" data-name="Trazado 609233" d="M25.9-18.357a35.768,35.768,0,0,1-.825,8.1A18.872,18.872,0,0,1,22.687-4.3,10.742,10.742,0,0,1,18.853-.622,10.5,10.5,0,0,1,13.686.635,9.8,9.8,0,0,1,8.8-.571,10.244,10.244,0,0,1,5.18-4.088,17.824,17.824,0,0,1,2.945-9.763a35.089,35.089,0,0,1-.762-7.706,39.72,39.72,0,0,1,.8-8.43A19.281,19.281,0,0,1,5.332-32.03a10.454,10.454,0,0,1,3.847-3.732,10.8,10.8,0,0,1,5.269-1.257Q25.9-37.02,25.9-18.357Zm-4.266.406q0-15.539-7.389-15.539-7.795,0-7.795,15.818,0,14.752,7.643,14.752Q21.633-2.92,21.633-17.951Zm26-8.912a7.528,7.528,0,0,0-.521-2.92,5.784,5.784,0,0,0-1.422-2.069,5.826,5.826,0,0,0-2.12-1.231,8.3,8.3,0,0,0-2.641-.406,8.734,8.734,0,0,0-2.387.33,11.6,11.6,0,0,0-2.272.914,13.979,13.979,0,0,0-2.133,1.4,15.406,15.406,0,0,0-1.917,1.8v-4.469a12.45,12.45,0,0,1,3.923-2.6,13.812,13.812,0,0,1,5.294-.9,12.78,12.78,0,0,1,4.139.647,9.489,9.489,0,0,1,3.3,1.892,8.744,8.744,0,0,1,2.2,3.072,10.362,10.362,0,0,1,.8,4.189,14.366,14.366,0,0,1-.5,3.91,12.093,12.093,0,0,1-1.5,3.3,15.927,15.927,0,0,1-2.526,2.971,35.786,35.786,0,0,1-3.58,2.895q-2.564,1.828-4.228,3.123a18.688,18.688,0,0,0-2.641,2.425,7.037,7.037,0,0,0-1.371,2.26,7.9,7.9,0,0,0-.394,2.6H53.27V0H30.8V-1.8a15.023,15.023,0,0,1,.508-4.113,10.681,10.681,0,0,1,1.676-3.377,18.741,18.741,0,0,1,3.06-3.2q1.892-1.6,4.634-3.605a29.3,29.3,0,0,0,3.313-2.717,14.125,14.125,0,0,0,2.146-2.59,9.3,9.3,0,0,0,1.155-2.628A11.331,11.331,0,0,0,47.633-26.863Z" transform="translate(22 314.51)" fill="#12263f"/>
    </g>
  </g>
</svg>
